<svg xmlns="http://www.w3.org/2000/svg" width="113.83" height="83.724" viewBox="0 0 113.83 83.724"><g transform="translate(-2999.021 -1099.098)"><rect width="113.83" height="19.601" rx="9.801" transform="translate(2999.021 1163.221)" fill="#ff9735"/><path d="M3111.784,1123.238c-3.659-7.145-16.007-31.851-75.831-21.746-48.239,8.149-36.464,23.508-30.095,29.15a8.548,8.548,0,0,0,5.67,2.15H3105.2a8.309,8.309,0,0,0,5.32-1.856C3112.291,1129.461,3113.715,1127.009,3111.784,1123.238Zm-81.15-3.02h-3.076v-7.52h3.076Zm15.383,3.76h-3.077v-7.52h3.077Zm6.495-7.52h-3.077v-7.521h3.077Zm9.857-3.76h-3.076v-7.521h3.076Zm11.68,9.059h-3.077v-7.521h3.077Z" transform="translate(-0.32)" fill="#ff9735"/><path d="M3021.28,1162.856v.1a2.684,2.684,0,0,0,2.683,2.684h59.112a2.681,2.681,0,0,1,1.889.777l8.812,8.73a2.684,2.684,0,0,0,4.322-.773l3.136-6.729a2.684,2.684,0,0,1,2.433-1.55h5.178a2.684,2.684,0,0,0,2.683-2.684v-.557a2.683,2.683,0,0,0-2.683-2.684h-84.881A2.683,2.683,0,0,0,3021.28,1162.856Z" transform="translate(-9.1 -24.969)" fill="#f8c722"/><g transform="translate(3006.539 1144.415)"><path d="M3102.846,1175.755h-2.035a3.031,3.031,0,0,0-2,1.654l-3.547,7.611a3.036,3.036,0,0,1-4.888.874l-9.967-9.875a2.98,2.98,0,0,0-.311-.264h-60.67a7.686,7.686,0,0,0-7.686,7.686h0a7.686,7.686,0,0,0,7.686,7.687h83.421a7.687,7.687,0,0,0,7.687-7.687h0A7.687,7.687,0,0,0,3102.846,1175.755Z" transform="translate(-3011.738 -1175.755)" fill="#7e0000"/></g></g></svg>