<svg xmlns="http://www.w3.org/2000/svg" width="193.707" height="198.628" viewBox="0 0 193.707 198.628">
  <g id="Group_1217" data-name="Group 1217" transform="translate(-847.293 -864.517)">
    <path id="Path_1340" data-name="Path 1340" d="M995.177,892.5a2.435,2.435,0,0,0-.474-2.253s-7.381-12.544-33.482-15.333c-13.976-1.495-33,1.338-46.343,8.524-24.164,13.026-27.781,34.467-27.781,34.467-.139.524-.366,2.134.176,2.813s1.36.68,2.354.349c8.533-2.88,33.951-11.314,49.992-15.571,22.827-6.052,41.582-9.739,53.62-11.788a2.27,2.27,0,0,0,1.938-1.208Zm-87.952,127.285c-.55,1.28.71,2.547.71,2.547,5.414,6.788,29.444,15.406,55.527,9.095,39.838-9.641,48.257-37.812,49.208-41.8a3.2,3.2,0,0,0-.4-2.9c-.636-.656-1.53-.665-2.773-.373-27.671,6.505-73.708,20.563-100.254,31.927-1.142.49-1.659.676-2.016,1.5Z" fill="#f5a800" fill-rule="evenodd"/>
    <path id="Path_1341" data-name="Path 1341" d="M1021.248,993.583c-13.661,30.69-39.875,52.048-74.231,52.535-25.016.353-47.1-8.22-63.041-23.16l-9.642,4.122.012-14.933c-10.5-14.174-16.6-32.1-16.6-52.464,0-52.16,39.945-93.274,95.666-93.274a106.922,106.922,0,0,1,23.515,2.823,94.755,94.755,0,0,0-29.6-4.715c-59.791,0-100.032,48.49-100.034,98.486,0,54.495,42.747,100.142,98.851,100.142,53.587,0,82.5-37.781,91.75-60.512l-16.646-9.05Z" fill="#0033a1" fill-rule="evenodd"/>
    <path id="Path_1342" data-name="Path 1342" d="M1007.376,982.813c7.866-.9,13.3-4.058,16.292-6.989,2.722-2.676,3.355-6.351,3.358-9.089.11-4.014,0-16.7,0-16.7l-20.8,4.505s0,1.565-.012,4.862c.038,3.211,1.591,4.962,4.958,4.347a24.678,24.678,0,0,0,2.687-.7l.026,3.969c-.016-.108.309,2.218-4.937,3.257-6.863,1.079-9.979-3.144-10.062-10.6.136-8.006,4.656-12.617,10.141-13.877,6.167-1.411,9.668.056,11.722.368,6.888,1.032,8.841-9.3,2.576-11.726-4.639-1.864-10.65-2.2-16.382-1.062-7.653,1.53-22.708,7.932-22.746,28.753.036,16.542,12.232,21.927,23.184,20.679Zm-11.089-50.245L996.3,900.5s9.368-1.654,11.784-1.97c6.708-.854,11.213,2.873,11.122,8.163-.038,4.646-2.959,7.452-5.442,9.135,0,0,4.56,5.142,5.783,6.5a4.282,4.282,0,0,1-.856,6.5,4.646,4.646,0,0,1-6.132-.8l-7.542-8.84s.029,5.431.023,7.808a4.492,4.492,0,0,1-3.841,4.6l-4.911.965Zm8.719-18.32c.007-.005,5.205-1.982,5.143-6.147-.051-3.523-3.523-2.88-5.155-2.519l.012,8.666Zm-13.871,19.291a3.88,3.88,0,0,0,3.187-4.205c0-2.168.01-3.812.01-3.812l-10.667,2.332.023-6.278s5.228-1.106,6.68-1.421a3.129,3.129,0,0,0,2.778-3.478c0-1.948-.012-3.631-.012-3.631l-9.448,2,0-4.973s4.912-1.022,7.556-1.582c2.064-.428,2.746-1.845,2.746-3.787,0-1.265.022-3.772.022-3.772-4.714.83-13.677,2.632-19.263,3.9l-.072,32.479s10.617-2.507,16.462-3.777Zm-51.4,67,6.938-2.389c5.132-1.768,7-4.819,6.977-10.1-.065-5.732-.076-16.909-.076-16.909l14.848,17.1a7.765,7.765,0,0,0,8.2,1.89,7.419,7.419,0,0,0,5.318-7.14c.024-12.352-.012-42.5-.012-42.5s-3.83.814-7.015,1.711c-3.665,1.045-6.481,3.383-6.481,9.548,0,2.183-.009,14.705-.009,14.705s-8.354-10.467-13.821-15.937c-2.923-2.919-7.755-1.173-7.755-1.173l-7.122,2.15.013,49.048Zm-4.5-47.935s-4.471,1.31-8.107,2.619c-4.73,1.71-7.448,4.442-7.448,11.6,0,6.565-.016,40.752-.016,40.752s4.14-1.414,8-2.866c5.483-2.066,7.553-4.894,7.553-10.653,0-4.951.016-41.448.016-41.448Zm-22.187,9.688a7.168,7.168,0,0,0-9.123,2.522l-12.615,21.448-.022-17.3-14.867,6.165-.047,48.913,10.471-4.393a6.382,6.382,0,0,0,3.3-2.537,10.471,10.471,0,0,0,1.1-4.808l.015-15.5,11.707,12.421a8.3,8.3,0,0,0,11.46.673,7.545,7.545,0,0,0,1.084-10.554L904.843,988.6s9.387-14.791,10.923-17.269a6.093,6.093,0,0,0-2.715-9.043Zm-19.944-7.844c.117,6.843-4.81,10.48-11.23,13.144l-13.146,5.584-.032-35.624s8.288-3.382,10.99-4.358c7.682-2.794,12.2.57,12.2,5.7,0,3.432-1.465,6.336-4.649,8.9a6.883,6.883,0,0,1,5.868,6.65Zm-15.329-6.594c.643-.248,1.118-.463,1.659-.727a5.613,5.613,0,0,0,3.376-5.024c.018-2.608-2.134-3.286-5.035-1.784v7.535l5.826,7.832c-.038-2.694-2.134-4.161-5.755-2.344l-.01,8.667s1.173-.52,2.035-.92a5.778,5.778,0,0,0,3.73-5.4l-5.826-7.832Zm40.291-23.466c0-3-2.064-3.8-4.56-3.083-2.019.575-4.372,1.5-4.372,1.5l-.015,22.147c-.023,2.2-.362,4.962-3.084,5.646-2.083.524-3.071-.869-3.074-3.06l-.03-18.128c0-3.02-2.1-3.918-4.581-3.1-2.8.938-4.478,1.608-4.478,1.608s.026,15.691-.008,21.957c-.037,7.351,5.033,11.02,12.759,8.74,6.814-2.017,11.366-5.833,11.45-15.622l-.007-18.6Zm11.456,12.842s-.02,6.227-.026,8.734a5.289,5.289,0,0,1-3.666,4.832h0l-5.31,1.82.013-33.435s7.46-2.6,11.849-3.619c6.816-1.586,11.667,1.514,11.579,7.025-.047,5.238-2.971,8.427-5.6,10.6l5.778,5.543a4.678,4.678,0,0,1-.1,6.7,4.945,4.945,0,0,1-6.826-.247l-7.693-7.956Zm-.016-5.006c.011,0,5.276-2.723,5.216-7.047-.048-3.686-3.447-2.879-5.215-2.23v9.277ZM972.564,919.1l-13.277,3.019s-.013,1.4-.015,3.7a2.338,2.338,0,0,0,2.951,2.466c1.095-.225,1.972-.423,1.972-.423l.019,3.681c.015,1.463-2.176,2.417-4.448,2.366-3.188-.079-4.954-2.557-5-7.272.1-6.192,3.012-9.823,6.981-10.845a13.331,13.331,0,0,1,5.182-.078c3.431.557,5.4-1.095,5.466-3.924.076-3.032-2.619-4.9-8.383-4.7-12.5.433-18.894,9.417-18.894,20.137,0,10.981,7.175,15.831,15.927,14.25,4.948-1.005,7.408-2.608,9.114-4.1a7.609,7.609,0,0,0,2.409-5.645l0-12.628Z" fill="red" fill-rule="evenodd"/>
    <path id="Path_1343" data-name="Path 1343" d="M920.248,883.192c-14.646,6.477-24.533,21.859-25.077,28.369-.213,2.591,3.22,2.964,3.542.22,3.092-11.889,12.551-23.09,21.535-28.589Z" fill="#fff" fill-rule="evenodd"/>
    <path id="Path_1344" data-name="Path 1344" d="M968.78,894.235c7.9-1.936,12.232-2.23,12.311-5.758.139-5.906-16.716-12.753-32.153-11.517,15.727,1.05,25.162,7.107,25.215,11.325.028,2.675-2.284,5.024-5.373,5.95Z" fill="#fff" fill-rule="evenodd"/>
    <path id="Path_1345" data-name="Path 1345" d="M973.673,1024.839c11.856-4.664,23.244-13.56,29.545-26.9,1.819-3.857-3.441-5.827-4.923-1.3a55.893,55.893,0,0,1-24.622,28.2Z" fill="#fff" fill-rule="evenodd"/>
    <path id="Path_1346" data-name="Path 1346" d="M1020.8,982.508v1.39h3.253V990.6h2.209V983.9h3.132v-1.39Zm16.079,8.1,1.917-6.555V990.6h2.2v-8.1h-3.221l-2,6.215-2-6.215h-3.221v8.1h2.205V984.05l1.917,6.555Z" fill="#e1251b" fill-rule="evenodd"/>
  </g>
</svg>
