<svg xmlns="http://www.w3.org/2000/svg" width="243.247" height="102.737" viewBox="0 0 243.247 102.737">
  <g id="drinks_text" transform="translate(-537.865 -1572.224)">
    <g id="Group_1274" data-name="Group 1274" transform="translate(560.112 1572.224)">
      <text id="cigarrillos_" data-name="cigarrillos " transform="translate(0 87.737)" fill="#f9e251" font-size="44" font-family="Poppins-Light, Poppins" font-weight="300"><tspan x="0" y="0">cig</tspan><tspan y="0" fill="#fff">arrillos </tspan></text>
      <g id="Group_1273" data-name="Group 1273" transform="translate(1.679 0)">
        <g id="Group_1271" data-name="Group 1271" transform="translate(0.878 25.184)">
          <path id="Path_1452" data-name="Path 1452" d="M972.334,3137.061v8.346H990.1q5.789,0,8.885-2.564a8.117,8.117,0,0,0,2.562-3.753C994.224,3140.514,984.738,3140.373,972.334,3137.061Z" transform="translate(-972.334 -3124.973)" fill="#fff"/>
          <path id="Path_1453" data-name="Path 1453" d="M1041.153,3134.723c.154.348.318.689.5,1.02a12.386,12.386,0,0,0,5.1,5.077,15.732,15.732,0,0,0,7.54,1.752,15.089,15.089,0,0,0,6.448-1.371,13.352,13.352,0,0,0,4.874-3.782,12.085,12.085,0,0,0,2.488-5.407h-10.561a3.557,3.557,0,0,1-1.32,1.878,4,4,0,0,1-2.437.711q-3.52,0-4.11-3.814c-.9.537-1.814,1.069-2.813,1.584A37.141,37.141,0,0,1,1041.153,3134.723Z" transform="translate(-1007.33 -3121.782)" fill="#fff"/>
          <path id="Path_1454" data-name="Path 1454" d="M1061.905,3122.917h17.059a12.02,12.02,0,0,0,.254-2.335,17.136,17.136,0,0,0-.31-3.285,33.723,33.723,0,0,0-6.928,1.168A36.332,36.332,0,0,0,1061.905,3122.917Z" transform="translate(-1017.883 -3114.922)" fill="#fff"/>
          <path id="Path_1455" data-name="Path 1455" d="M1125.633,3120.545c.01.177.019.355.019.54a6.114,6.114,0,0,1-1.447,4.341,4.937,4.937,0,0,1-3.782,1.549,4.857,4.857,0,0,1-3.706-1.574,6.062,6.062,0,0,1-1.473-4.316,7.3,7.3,0,0,1,.39-2.465,85.947,85.947,0,0,0-10.341-1.331v18.064h10v-4.519a8.011,8.011,0,0,0,3.25,3.58,9.961,9.961,0,0,0,5.179,1.295,11.17,11.17,0,0,0,6.144-1.752,11.853,11.853,0,0,0,4.316-5.077,17.148,17.148,0,0,0,1.523-6.312l-4.083-.819C1129.484,3121.32,1127.5,3120.918,1125.633,3120.545Z" transform="translate(-1039.946 -3114.918)" fill="#fff"/>
          <path id="Path_1456" data-name="Path 1456" d="M1175.436,3141.654h10v-10.022c-2.782-.523-6.1-1.175-10-1.952Z" transform="translate(-1075.616 -3121.219)" fill="#fff"/>
          <path id="Path_1457" data-name="Path 1457" d="M1223.716,3126.578a4.86,4.86,0,0,1-3.707,1.574,5.24,5.24,0,0,1-2.684-.674,43.346,43.346,0,0,1-5.735.614,37.341,37.341,0,0,1-6.312-.743,15.2,15.2,0,0,0,.971,2.706,11.849,11.849,0,0,0,4.316,5.077,11.167,11.167,0,0,0,6.143,1.752,9.967,9.967,0,0,0,5.179-1.295,8.02,8.02,0,0,0,3.25-3.58v4.519h10V3119.6c-3.675,1.821-6.638,4.005-10.57,5.711A4.973,4.973,0,0,1,1223.716,3126.578Z" transform="translate(-1090.792 -3116.095)" fill="#fff"/>
          <path id="Path_1458" data-name="Path 1458" d="M1281.4,3112.719a34.314,34.314,0,0,0-6.734,1.422,20.662,20.662,0,0,0-.467,4.491,18.038,18.038,0,0,0,1.574,7.794,11.847,11.847,0,0,0,4.316,5.077,11.164,11.164,0,0,0,6.144,1.752,10.1,10.1,0,0,0,5.2-1.3,7.973,7.973,0,0,0,3.275-3.579v4.519h9.952v-15.171C1298.206,3114.42,1291.35,3111.586,1281.4,3112.719Zm8.132.074a4.863,4.863,0,0,1,3.707,1.574,6,6,0,0,1,1.473,4.265,6.065,6.065,0,0,1-1.473,4.315,4.86,4.86,0,0,1-3.707,1.574,4.936,4.936,0,0,1-3.782-1.549,6.114,6.114,0,0,1-1.448-4.341,6.04,6.04,0,0,1,1.448-4.291A4.937,4.937,0,0,1,1289.531,3112.793Z" transform="translate(-1125.838 -3112.465)" fill="#fff"/>
          <path id="Path_1459" data-name="Path 1459" d="M1361.246,3136.7a1.764,1.764,0,0,1-.283.3,2.712,2.712,0,0,1-1.777.508,5.065,5.065,0,0,1-2.868-.761,2.885,2.885,0,0,1-1.053-1.253c-1.076-.32-2.118-.685-3.136-1.083h-6.753a10.83,10.83,0,0,0,4.316,7.413q3.553,2.589,9.545,2.589a15.935,15.935,0,0,0,6.169-1.092,8.967,8.967,0,0,0,3.986-3.022,7.345,7.345,0,0,0,1.353-3.891c-.335.052-.667.106-1.01.152A35.737,35.737,0,0,1,1361.246,3136.7Z" transform="translate(-1162.034 -3123.627)" fill="#fff"/>
        </g>
        <g id="Group_1272" data-name="Group 1272">
          <path id="Path_1460" data-name="Path 1460" d="M980.55,3093.81h5.636q3.909,0,3.91,3.351a2.837,2.837,0,0,1-2.285,3.066,41.719,41.719,0,0,0,12.253.792,11.782,11.782,0,0,0,.237-2.386,8.709,8.709,0,0,0-6.905-8.682,7.7,7.7,0,0,0,4.417-2.818,8.473,8.473,0,0,0,1.675-5.357,8.221,8.221,0,0,0-3.072-6.905q-3.073-2.386-8.5-2.386H970.547v22.471c3.176,1.041,6.51,2.27,10,3.361Zm0-13.353h4.976q3.809,0,3.808,3.25,0,3.148-3.757,3.147H980.55Z" transform="translate(-970.547 -3066.95)" fill="#8bd7f8"/>
          <path id="Path_1461" data-name="Path 1461" d="M1046.566,3104.637a9.526,9.526,0,0,1-.154-1.29h2.412a28.711,28.711,0,0,1,9.441-4.452,33.733,33.733,0,0,1,6.928-1.168,13.687,13.687,0,0,0-1.493-4.128,12.319,12.319,0,0,0-5.052-4.925,17.106,17.106,0,0,0-15.029.026,12.394,12.394,0,0,0-5.129,5.052,15.79,15.79,0,0,0-1.828,7.768,16.844,16.844,0,0,0,1.1,6.232,36.169,36.169,0,0,0,5.939-1.811C1044.811,3105.5,1045.743,3105.063,1046.566,3104.637Zm1.344-8.753a4.646,4.646,0,0,1,3.224-1.117,4.34,4.34,0,0,1,3.047,1.117,4.12,4.12,0,0,1,1.168,3.3h-8.885A4.845,4.845,0,0,1,1047.909,3095.884Z" transform="translate(-1004.168 -3074.305)" fill="#8bd7f8"/>
          <path id="Path_1462" data-name="Path 1462" d="M1114.928,3088.219a4.86,4.86,0,0,1,3.706-1.574,4.939,4.939,0,0,1,3.783,1.549,5.771,5.771,0,0,1,1.429,3.75l5.988,1.2,4.083.819c.03-.485.051-.976.051-1.482a17.888,17.888,0,0,0-1.574-7.768,11.884,11.884,0,0,0-4.316-5.052,11.17,11.17,0,0,0-6.144-1.751,9.961,9.961,0,0,0-5.179,1.294,8.019,8.019,0,0,0-3.25,3.58v-13.607h-10v19.509a86.026,86.026,0,0,1,10.341,1.331A5.116,5.116,0,0,1,1114.928,3088.219Z" transform="translate(-1038.159 -3065.269)" fill="#8bd7f8"/>
          <path id="Path_1463" data-name="Path 1463" d="M1183.651,3087.671h-10v16.511c3.9.777,7.22,1.429,10,1.952Z" transform="translate(-1073.829 -3074.673)" fill="#8bd7f8"/>
          <path id="Path_1464" data-name="Path 1464" d="M1173.621,3069.906a6.236,6.236,0,0,0,4.265,1.422,6.065,6.065,0,0,0,4.188-1.422,4.555,4.555,0,0,0,1.6-3.554,4.783,4.783,0,0,0-1.574-3.681,5.985,5.985,0,0,0-4.214-1.447,6.173,6.173,0,0,0-4.265,1.447,4.711,4.711,0,0,0-1.625,3.681A4.524,4.524,0,0,0,1173.621,3069.906Z" transform="translate(-1072.988 -3061.224)" fill="#8bd7f8"/>
          <path id="Path_1465" data-name="Path 1465" d="M1209.18,3098.314a43.259,43.259,0,0,0,5.735-.615,4.777,4.777,0,0,1-1.1-.875,6.114,6.114,0,0,1-1.447-4.341,6.039,6.039,0,0,1,1.447-4.29,4.937,4.937,0,0,1,3.782-1.549,4.864,4.864,0,0,1,3.707,1.574,6,6,0,0,1,1.473,4.265,7.012,7.012,0,0,1-.618,3.053c3.931-1.706,6.894-3.89,10.569-5.711v-20.646h-10v13.607a8.024,8.024,0,0,0-3.249-3.58,9.968,9.968,0,0,0-5.179-1.294,11.168,11.168,0,0,0-6.144,1.751,11.879,11.879,0,0,0-4.316,5.052,17.876,17.876,0,0,0-1.574,7.768,20.291,20.291,0,0,0,.6,5.088A37.371,37.371,0,0,0,1209.18,3098.314Z" transform="translate(-1088.381 -3065.269)" fill="#8bd7f8"/>
          <path id="Path_1466" data-name="Path 1466" d="M1303.357,3100.617V3087.3h-9.952v4.519a7.98,7.98,0,0,0-3.275-3.579,10.1,10.1,0,0,0-5.2-1.295,11.164,11.164,0,0,0-6.144,1.752,11.876,11.876,0,0,0-4.316,5.052,15.279,15.279,0,0,0-1.108,3.278,34.3,34.3,0,0,1,6.735-1.423C1290.046,3094.474,1296.9,3097.308,1303.357,3100.617Z" transform="translate(-1124.534 -3074.305)" fill="#8bd7f8"/>
          <path id="Path_1467" data-name="Path 1467" d="M1360.172,3126h-2.843c1.017.4,2.06.763,3.136,1.083A3.872,3.872,0,0,1,1360.172,3126Z" transform="translate(-1167.234 -3094.163)" fill="#8bd7f8"/>
          <path id="Path_1468" data-name="Path 1468" d="M1368.21,3108.29c.343-.045.675-.1,1.009-.151.011-.174.019-.348.019-.526a7.216,7.216,0,0,0-1.6-4.925,9.3,9.3,0,0,0-3.757-2.641,39.591,39.591,0,0,0-5.458-1.523,26.887,26.887,0,0,1-4.087-1.194,1.722,1.722,0,0,1-1.244-1.6,1.65,1.65,0,0,1,.584-1.345,2.608,2.608,0,0,1,1.7-.483,4.547,4.547,0,0,1,2.666.762,3.674,3.674,0,0,1,1.447,2.285h9.343a11.956,11.956,0,0,0-4.214-7.26q-3.351-2.743-8.987-2.742-5.535,0-8.53,2.437a7.744,7.744,0,0,0-3,6.3,7.067,7.067,0,0,0,1.548,4.849,9.074,9.074,0,0,0,3.631,2.539,35.088,35.088,0,0,0,5.332,1.447,22.2,22.2,0,0,1,4.138,1.117,1.861,1.861,0,0,1,1.295,1.777,1.65,1.65,0,0,1-.326,1.02A35.711,35.711,0,0,0,1368.21,3108.29Z" transform="translate(-1160.509 -3074.305)" fill="#8bd7f8"/>
        </g>
      </g>
    </g>
    <text id="_" data-name="&amp;" transform="translate(537.865 1631.043)" fill="#fff" font-size="23" font-family="Poppins-Bold, Poppins" font-weight="700" letter-spacing="0.5em"><tspan x="0" y="0">&amp;</tspan></text>
  </g>
</svg>
