<svg xmlns="http://www.w3.org/2000/svg" width="129.777" height="106.355" viewBox="0 0 129.777 106.355"><g transform="translate(-554.654 -3013.539)"><g transform="translate(661.053 3072.361)"><path d="M860.211,3169.54H836.833v1.508H840.6l1.061,5.656h18.547Z" transform="translate(-836.833 -3169.54)" fill="#999"/></g><g transform="translate(662.65 3080.279)"><path d="M862.851,3190.54H844.445l1.06,5.656h-3.771l-.665,7.164h21.78Z" transform="translate(-841.071 -3190.54)" fill="#999"/></g><path d="M853.347,3190.664h3.441v6.881h-3.441Z" transform="translate(-186.068 -110.338)" fill="#f9e251"/><path d="M865.613,3179.116h3.441V3186h-3.441Z" transform="translate(-193.709 -103.144)" fill="#f9e251"/><path d="M865.613,3198.221h3.441v6.153h-3.441Z" transform="translate(-193.709 -115.045)" fill="#fff"/><path d="M853.347,3210.055h3.441v1.691h-3.441Z" transform="translate(-186.068 -122.417)" fill="#fff"/><path d="M877.878,3191.8h3.441v8.572h-3.441Z" transform="translate(-201.349 -111.049)" fill="#fff"/><path d="M877.878,3172.414h3.441v6.881h-3.441Z" transform="translate(-201.349 -98.969)" fill="#f9e251"/><g transform="translate(607.597 3036.478)"><path d="M713.408,3080.626h8.757a1.072,1.072,0,0,0,.641-.982v-4.2a1.07,1.07,0,0,0-1.067-1.072h-7.905a1.07,1.07,0,0,0-1.067,1.072v4.2A1.072,1.072,0,0,0,713.408,3080.626Z" transform="translate(-706.091 -3074.375)" fill="#ff5b0c"/><rect width="11.656" height="13.122" transform="translate(0.054 30.758)" fill="#ff5b0c"/><path d="M706.816,3117.691a27.454,27.454,0,0,1,.2-3.455h.049a20.91,20.91,0,0,1,4.848-11.179l.625-.682-.089-.1a4.393,4.393,0,0,0-3.265-1.6h-4.943a4.338,4.338,0,0,0-3.188,1.512l-.8.868a20.911,20.911,0,0,0-4.848,11.179h-.049a27.466,27.466,0,0,0-.2,3.455c0,.055,0,.106,0,.16h11.656C706.816,3117.8,706.815,3117.746,706.816,3117.691Z" transform="translate(-695.123 -3090.76)" fill="#f7bd1e"/><path d="M741.16,3295.537h0Z" transform="translate(-723.637 -3212.144)" fill="#240000"/><path d="M706.719,3232.3v-7.293a14.447,14.447,0,0,1,.5-3.76,32.043,32.043,0,0,0,1.072-8.328,31.638,31.638,0,0,0-1.347-9.28,5.228,5.228,0,0,1-.221-1.537v-.392H695.063v.392a5.23,5.23,0,0,0,.221,1.537,31.638,31.638,0,0,1,1.347,9.28,32.046,32.046,0,0,1-1.072,8.328,14.447,14.447,0,0,0-.5,3.76v7.293c0,2.644,1.475,4.787,3.3,4.787h2.09c1.489,0,2.747.144,3.155-1.827.408,1.97,1.666,1.827,3.155,1.827h0a4.788,4.788,0,0,0,2.182-.265A4.993,4.993,0,0,1,706.719,3232.3Z" transform="translate(-695.063 -3153.696)" fill="#f7bd1e"/><path d="M741.764,3295.536h0Z" transform="translate(-724.013 -3212.144)" fill="#240000"/></g><g transform="translate(627.817 3071.455)"><path d="M787.811,3168.053a.916.916,0,0,0-.916-.916H763.977a.916.916,0,0,0-.916.916v2.58h24.75Z" transform="translate(-757.642 -3167.137)" fill="#ccc"/><path d="M762.609,3280.717a.916.916,0,0,0,.912.832h22.39a.916.916,0,0,0,.912-.831l.7-7.637H761.905Z" transform="translate(-756.922 -3233.134)" fill="#ccc"/><path d="M784.272,3187.315l-.856-5.611H749.55l-.856,5.611c0,.016,0,.032,0,.048h35.588C784.275,3187.347,784.275,3187.331,784.272,3187.315Z" transform="translate(-748.689 -3176.211)" fill="#3f2300"/><path d="M755.874,3207.67h29.519l.522-5.659H755.352Z" transform="translate(-752.84 -3188.861)" fill="#ccc"/><rect width="21.493" height="15.082" transform="translate(7.219 21.267)" fill="#eacc74"/><path d="M755.681,3222.316a.9.9,0,0,0-.016.269l1.555,16.875h27.212l1.555-16.875a.916.916,0,0,0-.015-.269Zm13.574,3.05c2.344-2.344,5.568-2.862,7.4-1.3l-.978.333a5.423,5.423,0,0,0-3.319,3.157,8.226,8.226,0,0,0-3.47-1.778C769.007,3225.638,769.124,3225.5,769.255,3225.366Zm1.558,11.989a7.1,7.1,0,0,1-4.884-2.194c-2.344-2.344-2.863-5.612-1.3-7.442l.333.978a5.513,5.513,0,0,0,4.136,3.666,4.691,4.691,0,0,1,3.576,3.127l.4,1.211A3.983,3.983,0,0,1,770.813,3237.355Zm2.934-1.257-.285-.868a5.522,5.522,0,0,0-4.205-3.682,4.679,4.679,0,0,1-3.511-3.118l-.447-1.314c1.871-1.271,4.875-.646,7.1,1.577C774.742,3231.039,775.31,3234.269,773.747,3236.1Zm1.976-4.263c-.135.135-.28.256-.422.381a8.414,8.414,0,0,0-2.284-4.074,4.608,4.608,0,0,1,2.925-2.958l1.314-.447C778.527,3226.607,777.946,3229.611,775.723,3231.835Z" transform="translate(-753.033 -3201.51)" fill="#3f2300"/></g><path d="M800.8,3163.058" transform="translate(-153.336 -93.141)" fill="#beff55"/><g transform="translate(622.107 3036.478)"><path d="M751.891,3080.626h8.757a1.073,1.073,0,0,0,.641-.982v-4.2a1.07,1.07,0,0,0-1.067-1.072h-7.905a1.07,1.07,0,0,0-1.067,1.072v4.2A1.072,1.072,0,0,0,751.891,3080.626Z" transform="translate(-744.574 -3074.375)" fill="#20f455"/><path d="M741.868,3162.436V3157.2h15.1v-.081c0-.4,0-.794,0-1.173H733.689v13.122h2.987l1.148-6.635Z" transform="translate(-733.635 -3125.191)" fill="#20f455"/><path d="M756.664,3114.236h-.06a28.735,28.735,0,0,0-1.466-5.357,21.766,21.766,0,0,0-4.21-6.606,4.392,4.392,0,0,0-3.265-1.6h-4.943a4.338,4.338,0,0,0-3.188,1.512l-.8.868a20.911,20.911,0,0,0-4.848,11.179h-.05a27.483,27.483,0,0,0-.2,3.455c0,.055,0,.106,0,.16H756.96A31.633,31.633,0,0,0,756.664,3114.236Z" transform="translate(-733.606 -3090.76)" fill="#beff55"/><path d="M735.594,3203.311l.277-1.6h-2.326v.392a5.23,5.23,0,0,0,.221,1.537,31.626,31.626,0,0,1,1.347,9.28,32.043,32.043,0,0,1-1.072,8.328,14.447,14.447,0,0,0-.5,3.76v7.293c0,2.644,1.476,4.787,3.3,4.787h2.09c1.076,0,2.029.071,2.63-.63l-2.4-33.145Z" transform="translate(-733.545 -3153.696)" fill="#beff55"/></g><g transform="translate(554.654 3013.539)"><path d="M589.3,3021.51h11.166a1.366,1.366,0,0,0,.818-1.252v-5.352a1.363,1.363,0,0,0-1.361-1.366h-10.08a1.363,1.363,0,0,0-1.361,1.366v5.352A1.366,1.366,0,0,0,589.3,3021.51Z" transform="translate(-575.728 -3013.54)" fill="#fff"/><rect width="22.122" height="16.731" transform="translate(0 39.219)" fill="#2a22d4"/><path d="M577.431,3068.771a26.808,26.808,0,0,1,.327-4.405h.083a23.972,23.972,0,0,1,7.772-13.967c-.482-.452-.963-.882-1.434-1.287a8.367,8.367,0,0,0-5.453-2.035h-8.256a8.316,8.316,0,0,0-5.325,1.928l-1.33,1.107a23.975,23.975,0,0,0-8.1,14.253h-.083a26.8,26.8,0,0,0-.327,4.405c0,.07,0,.136,0,.2h22.122C577.431,3068.906,577.431,3068.84,577.431,3068.771Z" transform="translate(-555.061 -3034.43)" fill="#3d0e00"/><path d="M567.751,3185.092v-4.757h1.665V3175.9H555.372v.5a5.226,5.226,0,0,0,.368,1.959,32.314,32.314,0,0,1,.46,22.451,14.368,14.368,0,0,0-.828,4.795v9.3c0,3.372,2.464,6.1,5.5,6.1h3.069V3190.8Z" transform="translate(-555.101 -3114.679)" fill="#3d0e00"/><path d="M656.175,3021.51H667.34a1.367,1.367,0,0,0,.818-1.253v-5.352a1.364,1.364,0,0,0-1.361-1.366h-10.08a1.364,1.364,0,0,0-1.361,1.366v5.352A1.367,1.367,0,0,0,656.175,3021.51Z" transform="translate(-617.386 -3013.539)" fill="#fff"/><path d="M646.855,3127.336a98.446,98.446,0,0,1,1.426-9.785H622.787v16.731h24.068Z" transform="translate(-597.096 -3078.332)" fill="#ef0000"/><path d="M651.051,3049.111a8.367,8.367,0,0,0-5.453-2.035h-8.256a8.316,8.316,0,0,0-5.325,1.928l-1.329,1.107a23.975,23.975,0,0,0-8.1,14.253h-.083a26.8,26.8,0,0,0-.327,4.406c0,.07,0,.135,0,.2h27.988c1.186-1.753,2.544-3.541,2.886-3.988a.4.4,0,0,0,.081-.241v-8.468a1.864,1.864,0,0,1,1.864-1.863h1.144A35.064,35.064,0,0,0,651.051,3049.111Z" transform="translate(-596.718 -3034.43)" fill="#3d0e00"/><path d="M663.587,3188.764a12.859,12.859,0,0,1-.549-3.715v-9.15H648.765v4.911h10.942v4.757l1.9,3.806v31.41a2.656,2.656,0,0,0,1.9-1.922v-10.934s2.018-8.526,1.9-11.418A45.509,45.509,0,0,0,663.587,3188.764Z" transform="translate(-613.279 -3114.679)" fill="#3d0e00"/></g><g transform="translate(566.352 3075.477)"><path d="M594.445,3203.93l3.016-4.021v-3.016H588.9v3.016l-3.016,4.021v23.19l8.563-4.464V3203.93Z" transform="translate(-585.805 -3189.696)" fill="#20f455"/><path d="M585.881,3281.581l3.016,3.016h8.563l-3.016-3.016v-3.607l-8.563,1.717Z" transform="translate(-585.805 -3240.204)" fill="#20f455"/><path d="M603.676,3183.529v-3.738a1.987,1.987,0,0,0-1.987-1.987H600.6a1.987,1.987,0,0,0-1.988,1.987v3.738h5.06Zm-2.53-.88a1.982,1.982,0,1,1,1.982-1.982A1.982,1.982,0,0,1,601.146,3182.648Z" transform="translate(-593.738 -3177.804)" fill="#999"/><path d="M594.243,3270.016v-4.758l-8.563,4.52v1.9Z" transform="translate(-585.679 -3232.282)" fill="#fff"/></g><g transform="translate(577.846 3075.477)"><g transform="translate(0)"><path d="M636.268,3199.909v-3.016h-17.09v3.016l-3.016,4.021v27.143l3.016,3.016h17.09l3.016-3.016V3203.93Z" transform="translate(-616.163 -3189.696)" fill="#ef0000"/><path d="M633.957,3183.529v-3.738a1.987,1.987,0,0,0-1.987-1.987h-1.084a1.987,1.987,0,0,0-1.987,1.987v3.738Zm-2.53-.88a1.982,1.982,0,1,1,1.982-1.982A1.982,1.982,0,0,1,631.428,3182.648Z" transform="translate(-624.096 -3177.804)" fill="#999"/></g><path d="M616.163,3257.148l23.122-12.052v9.479l-23.122,4.635Z" transform="translate(-616.163 -3219.722)" fill="#fff"/></g><g transform="translate(660.164 3098.497)"><path d="M858.743,3247.081l-13.763-8.225-9.018,5.39-1.485,16.007h24.266Z" transform="translate(-834.477 -3238.856)" fill="red"/></g><g transform="translate(661.898 3080.326)"><path d="M859.8,3190.664c-.412,2,1.806,9.462-4.215,9.462H840.134l-1.06,11.425,8.77-5.4,13.763,8.479v-23.963Z" transform="translate(-839.074 -3190.664)" fill="#f2f2f2"/></g></g></svg>