<svg xmlns="http://www.w3.org/2000/svg" width="279.345" height="94.13" viewBox="0 0 279.345 94.13"><g transform="translate(-894.021 -3445)"><g transform="translate(1102.983 3445)"><path d="M1278.746,3458.048a6.39,6.39,0,0,0,8.346.594l-8.941-8.941A6.391,6.391,0,0,0,1278.746,3458.048Z" transform="translate(-1276.877 -3447.135)" fill="#fff"/><path d="M1289.925,3446.869a6.391,6.391,0,0,0-8.346-.594l8.941,8.94A6.39,6.39,0,0,0,1289.925,3446.869Z" transform="translate(-1279.013 -3445)" fill="#fff"/></g><path d="M4.909,0H12.4a0,0,0,0,1,0,0V9.819a0,0,0,0,1,0,0H4.909A4.909,4.909,0,0,1,0,4.909v0A4.909,4.909,0,0,1,4.909,0Z" transform="translate(911.075 3491.069) rotate(-90)" fill="#fff"/><g transform="translate(907.11 3445.245)"><path d="M936.69,3454.034a5.058,5.058,0,0,0-3.562,1.051,4.841,4.841,0,0,0-1.227,3.387h5.9v8.41h-5.9v9.921h-9.986v-9.921H918v-8.41h3.913v-.351q0-6.073,3.533-9.373t10.25-3.3q1.4,0,2.1.059v8.585Z" transform="translate(-918.002 -3445.449)" fill="#fff"/><path d="M973.667,3477.737a8.9,8.9,0,0,1,3.466,4.026v-5.147H985.8v28.438h-8.663v-5.147a8.884,8.884,0,0,1-3.466,4.026,10.291,10.291,0,0,1-5.606,1.478,11.516,11.516,0,0,1-6.294-1.759,12.021,12.021,0,0,1-4.383-5.071,19.555,19.555,0,0,1,0-15.518,12.054,12.054,0,0,1,4.383-5.045,11.515,11.515,0,0,1,6.294-1.758A10.3,10.3,0,0,1,973.667,3477.737Zm-7.313,8a8.46,8.46,0,0,0,0,10.193,6.4,6.4,0,0,0,9.02-.051,8.154,8.154,0,0,0,0-10.116,5.93,5.93,0,0,0-4.51-1.86A5.869,5.869,0,0,0,966.354,3485.739Z" transform="translate(-935.16 -3459.443)" fill="#fff"/><path d="M1034.713,3477.882a10.733,10.733,0,0,1,5.581-1.529v9.326h-2.5a8.617,8.617,0,0,0-5.377,1.478q-1.911,1.479-1.911,4.995V3505.1h-8.715v-28.437h8.715v5.351A12.369,12.369,0,0,1,1034.713,3477.882Z" transform="translate(-965.145 -3459.486)" fill="#fff"/><path d="M1107.514,3479.589q3.006,3.237,3.007,9V3505.1h-8.664V3489.6a5.8,5.8,0,0,0-1.453-4.2,5.239,5.239,0,0,0-3.949-1.5,5.348,5.348,0,0,0-4.1,1.605,6.343,6.343,0,0,0-1.5,4.51V3505.1h-8.714V3489.6a5.867,5.867,0,0,0-1.427-4.2,5.154,5.154,0,0,0-3.924-1.5,5.479,5.479,0,0,0-4.128,1.58,6.262,6.262,0,0,0-1.529,4.536V3505.1h-8.715v-28.437h8.715v4.842a8.475,8.475,0,0,1,3.44-3.771,10.431,10.431,0,0,1,5.427-1.376,10.955,10.955,0,0,1,5.759,1.5,9.46,9.46,0,0,1,3.771,4.307,11.39,11.39,0,0,1,4.052-4.23,11.678,11.678,0,0,1,13.938,1.656Z" transform="translate(-983.594 -3459.486)" fill="#fff"/><path d="M1176.382,3477.737a8.9,8.9,0,0,1,3.466,4.026v-5.147h8.663v28.438h-8.663v-5.147a8.884,8.884,0,0,1-3.466,4.026,10.291,10.291,0,0,1-5.606,1.478,11.516,11.516,0,0,1-6.294-1.759,12.021,12.021,0,0,1-4.383-5.071,19.555,19.555,0,0,1,0-15.518,12.053,12.053,0,0,1,4.383-5.045,11.515,11.515,0,0,1,6.294-1.758A10.3,10.3,0,0,1,1176.382,3477.737Zm-7.313,8a8.46,8.46,0,0,0,0,10.193,6.4,6.4,0,0,0,9.02-.051,8.153,8.153,0,0,0,0-10.116,5.93,5.93,0,0,0-4.51-1.86A5.869,5.869,0,0,0,1169.069,3485.739Z" transform="translate(-1027.234 -3459.443)" fill="#fff"/><path d="M1245.346,3479.292a13.447,13.447,0,0,1,4.688,8.332h-9.224a4.875,4.875,0,0,0-1.682-2.854,4.977,4.977,0,0,0-3.21-1.019,4.66,4.66,0,0,0-3.771,1.809,10.151,10.151,0,0,0,0,10.55,4.656,4.656,0,0,0,3.771,1.81,4.976,4.976,0,0,0,3.21-1.02,4.872,4.872,0,0,0,1.682-2.854h9.224a13.446,13.446,0,0,1-4.688,8.333,14.124,14.124,0,0,1-9.224,3.032,15.279,15.279,0,0,1-7.415-1.759,12.548,12.548,0,0,1-5.07-5.071,17.431,17.431,0,0,1-.026-15.518,12.39,12.39,0,0,1,5.071-5.045,15.426,15.426,0,0,1,7.44-1.758A14.124,14.124,0,0,1,1245.346,3479.292Z" transform="translate(-1055.989 -3459.443)" fill="#fff"/><path d="M1290.555,3476.913v28.438h-8.715v-28.437Z" transform="translate(-1083.259 -3459.74)" fill="#fff"/><path d="M1324,3477.737a8.9,8.9,0,0,1,3.465,4.026v-5.147h8.664v28.438h-8.664v-5.147a8.887,8.887,0,0,1-3.465,4.026,10.292,10.292,0,0,1-5.606,1.478,11.514,11.514,0,0,1-6.294-1.759,12.013,12.013,0,0,1-4.383-5.071,19.549,19.549,0,0,1,0-15.518,12.046,12.046,0,0,1,4.383-5.045,11.514,11.514,0,0,1,6.294-1.758A10.3,10.3,0,0,1,1324,3477.737Zm-7.313,8a8.461,8.461,0,0,0,0,10.193,6.4,6.4,0,0,0,9.02-.051,8.155,8.155,0,0,0,0-10.116,5.932,5.932,0,0,0-4.51-1.86A5.869,5.869,0,0,0,1316.691,3485.739Z" transform="translate(-1094.285 -3459.443)" fill="#fff"/></g><g transform="translate(894.021 3501.405)"><path d="M1090.931,3571.541a6.434,6.434,0,0,0-5.908,0,5.4,5.4,0,0,0-2.187,2.2,8.444,8.444,0,0,0,0,7.312,5.4,5.4,0,0,0,2.187,2.2,6.434,6.434,0,0,0,5.908,0,5.4,5.4,0,0,0,2.187-2.2,8.444,8.444,0,0,0,0-7.312A5.406,5.406,0,0,0,1090.931,3571.541Z" transform="translate(-979.403 -3558.554)" fill="#ecaeff"/><path d="M1230.634,3571.541a6.434,6.434,0,0,0-5.908,0,5.4,5.4,0,0,0-2.187,2.2,8.445,8.445,0,0,0,0,7.312,5.4,5.4,0,0,0,2.187,2.2,6.434,6.434,0,0,0,5.908,0,5.4,5.4,0,0,0,2.187-2.2,8.445,8.445,0,0,0,0-7.312A5.406,5.406,0,0,0,1230.634,3571.541Z" transform="translate(-1042.857 -3558.554)" fill="#ecaeff"/><path d="M1036.709,3571.682a6.2,6.2,0,0,0-3.15-.8,5.753,5.753,0,0,0-4.39,1.747,7.855,7.855,0,0,0,0,9.629,5.753,5.753,0,0,0,4.39,1.747,6.094,6.094,0,0,0,3.15-.816,5.677,5.677,0,0,0,2.171-2.3,7.272,7.272,0,0,0,.784-3.443,7.375,7.375,0,0,0-.784-3.46A5.557,5.557,0,0,0,1036.709,3571.682Z" transform="translate(-954.657 -3558.581)" fill="#ecaeff"/><path d="M996.4,3571.682a6.2,6.2,0,0,0-3.15-.8,5.753,5.753,0,0,0-4.39,1.747,7.855,7.855,0,0,0,0,9.629,5.753,5.753,0,0,0,4.39,1.747,6.093,6.093,0,0,0,3.15-.816,5.678,5.678,0,0,0,2.171-2.3,7.273,7.273,0,0,0,.783-3.443,7.376,7.376,0,0,0-.783-3.46A5.557,5.557,0,0,0,996.4,3571.682Z" transform="translate(-936.349 -3558.581)" fill="#ecaeff"/><path d="M1314.359,3571.541a6.434,6.434,0,0,0-5.908,0,5.4,5.4,0,0,0-2.187,2.2,8.444,8.444,0,0,0,0,7.312,5.394,5.394,0,0,0,2.187,2.2,6.434,6.434,0,0,0,5.908,0,5.4,5.4,0,0,0,2.187-2.2,8.445,8.445,0,0,0,0-7.312A5.408,5.408,0,0,0,1314.359,3571.541Z" transform="translate(-1080.885 -3558.554)" fill="#ecaeff"/><path d="M1173.366,3548.344H912.884a18.863,18.863,0,1,0,0,37.725h260.482v-.286l-14.21-18.577,14.21-18.577Zm-253.941,12.824h-.914a6.345,6.345,0,0,0-4.113,1.289q-1.6,1.291-1.6,4.26v9.433h-2.97v-17.92h2.97v3.623a6.59,6.59,0,0,1,2.579-2.889,7.664,7.664,0,0,1,4.048-1.028Zm19.291,6.659h-14.33a6.28,6.28,0,0,0,1.746,4.6,5.7,5.7,0,0,0,4.031,1.534,5.824,5.824,0,0,0,3.607-1.094,4.52,4.52,0,0,0,1.779-2.921h3.166a7.483,7.483,0,0,1-4.374,5.614,9.673,9.673,0,0,1-4.048.816,9.224,9.224,0,0,1-4.57-1.11,7.84,7.84,0,0,1-3.117-3.183,11.173,11.173,0,0,1,0-9.776,7.824,7.824,0,0,1,3.117-3.2,9.232,9.232,0,0,1,4.57-1.11,9.027,9.027,0,0,1,4.554,1.11,7.644,7.644,0,0,1,2.97,2.971,8.359,8.359,0,0,1,1.028,4.113A8.865,8.865,0,0,1,938.716,3567.827ZM960,3576.444a9.1,9.1,0,0,1-1.044,4.406,7.514,7.514,0,0,1-2.938,3,8.76,8.76,0,0,1-4.406,1.077,9.461,9.461,0,0,1-5.908-1.746,7.707,7.707,0,0,1-2.905-4.717h2.938a5.085,5.085,0,0,0,1.975,2.823,6.32,6.32,0,0,0,3.737,1.028,5.485,5.485,0,0,0,4-1.551,5.778,5.778,0,0,0,1.583-4.325v-4.864a6.8,6.8,0,0,1-2.53,3.493,7.362,7.362,0,0,1-4.423,1.305,8.119,8.119,0,0,1-4.244-1.11,7.663,7.663,0,0,1-2.921-3.183,11.79,11.79,0,0,1,0-9.776,7.651,7.651,0,0,1,2.921-3.2,8.126,8.126,0,0,1,4.244-1.11,7.367,7.367,0,0,1,4.423,1.305,6.809,6.809,0,0,1,2.53,3.493v-4.569H960Zm22-.294h-2.97v-4.57a6.806,6.806,0,0,1-2.53,3.493,7.364,7.364,0,0,1-4.423,1.305,8.12,8.12,0,0,1-4.244-1.11,7.671,7.671,0,0,1-2.921-3.183,11.79,11.79,0,0,1,0-9.776,7.658,7.658,0,0,1,2.921-3.2,8.127,8.127,0,0,1,4.244-1.11,7.369,7.369,0,0,1,4.423,1.305,6.811,6.811,0,0,1,2.53,3.493v-4.569H982Zm7.7,0H986.73V3552H989.7Zm20.711-4.064a7.967,7.967,0,0,1-3.2,3.183,10.168,10.168,0,0,1-9.238,0,8.071,8.071,0,0,1-3.215-3.183,10.75,10.75,0,0,1,0-9.776,8.051,8.051,0,0,1,3.215-3.2,10.168,10.168,0,0,1,9.238,0,7.949,7.949,0,0,1,3.2,3.2,10.89,10.89,0,0,1,0,9.776Zm16.288,2.921a6.646,6.646,0,0,1-4.39,1.371,8.4,8.4,0,0,1-5.222-1.534,6.115,6.115,0,0,1-2.383-4.276h2.872a3.737,3.737,0,0,0,1.42,2.644,5.12,5.12,0,0,0,3.313,1.012,3.445,3.445,0,0,0,2.4-.783,2.644,2.644,0,0,0,.865-2.056,2.251,2.251,0,0,0-.62-1.665,4.076,4.076,0,0,0-1.534-.947,22.655,22.655,0,0,0-2.513-.685,24.409,24.409,0,0,1-3.183-.914,4.877,4.877,0,0,1-2.024-1.452,4.067,4.067,0,0,1-.832-2.693,4.509,4.509,0,0,1,1.665-3.639,6.868,6.868,0,0,1,4.537-1.387,7.235,7.235,0,0,1,4.88,1.583,6.671,6.671,0,0,1,2.236,4.26h-2.84a4.112,4.112,0,0,0-1.322-2.628,4.306,4.306,0,0,0-3.019-1.028,3.727,3.727,0,0,0-2.5.767,2.587,2.587,0,0,0-.9,2.073,2.139,2.139,0,0,0,.6,1.583,3.859,3.859,0,0,0,1.5.914,24.937,24.937,0,0,0,2.464.669,24.4,24.4,0,0,1,3.215.93,5.052,5.052,0,0,1,2.089,1.518,4.267,4.267,0,0,1,.865,2.808A4.411,4.411,0,0,1,1026.7,3575.008Zm30.307,1.143-5.027-5.549a5.591,5.591,0,0,1-.2,1.306,5.157,5.157,0,0,1-1.926,3.231,5.915,5.915,0,0,1-3.787,1.24,7.308,7.308,0,0,1-3.59-.865,6.224,6.224,0,0,1-2.449-2.416,7.108,7.108,0,0,1-.881-3.574,7.289,7.289,0,0,1,.8-3.509,5.553,5.553,0,0,1,2.138-2.252,5.868,5.868,0,0,1,2.97-.767,5.388,5.388,0,0,1,.718.066l-.49-.62a10.373,10.373,0,0,1-1.387-2.105,5.381,5.381,0,0,1-.473-2.334,4.85,4.85,0,0,1,2.677-4.374,6.675,6.675,0,0,1,3.2-.718,6.019,6.019,0,0,1,4.292,1.4,5.646,5.646,0,0,1,1.747,3.525,5.565,5.565,0,0,1,.2,1.469,2.735,2.735,0,0,1-.033.49H1052.7a2.86,2.86,0,0,0,.016-.539c-.011-.207-.016-.353-.016-.441a3.571,3.571,0,0,0-.914-2.53,3.274,3.274,0,0,0-2.448-.9,3.032,3.032,0,0,0-2.269.849,2.83,2.83,0,0,0-.832,2.056,3.689,3.689,0,0,0,.375,1.73,9.288,9.288,0,0,0,1.224,1.7l12.208,14.428Zm29.654-4.064a7.971,7.971,0,0,1-3.2,3.183,10.168,10.168,0,0,1-9.238,0,8.075,8.075,0,0,1-3.215-3.183,10.754,10.754,0,0,1,0-9.776,8.056,8.056,0,0,1,3.215-3.2,10.168,10.168,0,0,1,9.238,0,7.952,7.952,0,0,1,3.2,3.2,10.89,10.89,0,0,1,0,9.776Zm13.595,4.064h-2.22a5.7,5.7,0,0,1-4.1-1.306q-1.355-1.3-1.355-4.374v-9.662h-2.677v-2.578h2.677v-4.472h3v4.472h4.635v2.578h-4.635v9.727a3.351,3.351,0,0,0,.636,2.367,3.066,3.066,0,0,0,2.2.636h1.828Zm13.22-14.982h-.914a6.347,6.347,0,0,0-4.113,1.289q-1.6,1.291-1.6,4.26v9.433h-2.97v-17.92h2.97v3.623a6.59,6.59,0,0,1,2.579-2.889,7.666,7.666,0,0,1,4.048-1.028Zm18.882,10.918a7.967,7.967,0,0,1-3.2,3.183,10.168,10.168,0,0,1-9.238,0,8.075,8.075,0,0,1-3.215-3.183,10.754,10.754,0,0,1,0-9.776,8.056,8.056,0,0,1,3.215-3.2,10.168,10.168,0,0,1,9.238,0,7.948,7.948,0,0,1,3.2,3.2,10.89,10.89,0,0,1,0,9.776Zm16.288,2.921a6.645,6.645,0,0,1-4.391,1.371,8.4,8.4,0,0,1-5.222-1.534,6.115,6.115,0,0,1-2.383-4.276h2.873a3.736,3.736,0,0,0,1.42,2.644,5.12,5.12,0,0,0,3.313,1.012,3.445,3.445,0,0,0,2.4-.783,2.644,2.644,0,0,0,.865-2.056,2.253,2.253,0,0,0-.62-1.665,4.076,4.076,0,0,0-1.534-.947,22.655,22.655,0,0,0-2.513-.685,24.378,24.378,0,0,1-3.182-.914,4.877,4.877,0,0,1-2.024-1.452,4.067,4.067,0,0,1-.832-2.693,4.509,4.509,0,0,1,1.665-3.639,6.868,6.868,0,0,1,4.537-1.387,7.235,7.235,0,0,1,4.88,1.583,6.674,6.674,0,0,1,2.236,4.26h-2.84a4.112,4.112,0,0,0-1.322-2.628,4.306,4.306,0,0,0-3.019-1.028,3.727,3.727,0,0,0-2.5.767,2.587,2.587,0,0,0-.9,2.073,2.139,2.139,0,0,0,.6,1.583,3.86,3.86,0,0,0,1.5.914,24.918,24.918,0,0,0,2.464.669,24.4,24.4,0,0,1,3.215.93,5.047,5.047,0,0,1,2.089,1.518,4.265,4.265,0,0,1,.865,2.808A4.411,4.411,0,0,1,1148.646,3575.008Z" transform="translate(-894.021 -3548.344)" fill="#ecaeff"/><path d="M1168.6,3579.435a3.81,3.81,0,0,0-2.791,1.077,4.114,4.114,0,0,0-1.093,3.068,4.2,4.2,0,0,0,1.24,3.2,4.291,4.291,0,0,0,3.068,1.174,4.033,4.033,0,0,0,2.954-1.142,3.949,3.949,0,0,0,1.159-2.937,4.07,4.07,0,0,0-.653-2.253,4.789,4.789,0,0,0-1.7-1.6A4.4,4.4,0,0,0,1168.6,3579.435Z" transform="translate(-1016.97 -3562.466)" fill="#ecaeff"/><path d="M958.4,3571.117a6.257,6.257,0,0,0-2.84-.653,5.88,5.88,0,0,0-4.113,1.518,6.115,6.115,0,0,0-1.8,4.456h11.457a6.1,6.1,0,0,0-.653-3.329A4.777,4.777,0,0,0,958.4,3571.117Z" transform="translate(-919.29 -3558.391)" fill="#ecaeff"/></g></g></svg>