<svg xmlns="http://www.w3.org/2000/svg" width="110.938" height="98.121" viewBox="0 0 110.938 98.121">
  <g id="farmacy_ico" transform="translate(-545.083 -3391)">
    <g id="Group_1306" data-name="Group 1306" transform="translate(608.41 3442.607)">
      <g id="Group_1303" data-name="Group 1303" transform="translate(0 8.757)">
        <path id="Path_1521" data-name="Path 1521" d="M769.41,3612.789a1.31,1.31,0,0,1-1.31,1.31h-3.645a1.31,1.31,0,0,0-1.31,1.31v3.646a1.31,1.31,0,0,1-1.31,1.31H757.5a1.31,1.31,0,0,1-1.31-1.31v-3.646a1.31,1.31,0,0,0-1.31-1.31h-3.646a1.31,1.31,0,0,1-1.31-1.31v-4.329a1.31,1.31,0,0,1,1.31-1.31h3.646a1.31,1.31,0,0,0,1.31-1.31v-3.646a1.31,1.31,0,0,1,1.31-1.31h4.329a1.31,1.31,0,0,1,1.31,1.31v3.646a1.31,1.31,0,0,0,1.31,1.31H768.1a1.31,1.31,0,0,1,1.31,1.31Z" transform="translate(-743.707 -3589.988)" fill="#00728b"/>
        <path id="Path_1522" data-name="Path 1522" d="M759.829,3575.061a3.75,3.75,0,0,1-1.211-1.188,1.175,1.175,0,0,1,.326-1.582,1.927,1.927,0,0,0,.806-1.646,1.957,1.957,0,0,0-1.971-1.853H737.351a1.957,1.957,0,0,0-1.971,1.853,1.927,1.927,0,0,0,.806,1.646,1.176,1.176,0,0,1,.327,1.582,3.754,3.754,0,0,1-1.211,1.188,7.7,7.7,0,0,0-3.7,6.582v20.21a4.7,4.7,0,0,0,4.7,4.7h22.532a4.7,4.7,0,0,0,4.7-4.7v-20.21A7.7,7.7,0,0,0,759.829,3575.061Zm-2.523,16.532a1.31,1.31,0,0,1-1.31,1.31H752.35a1.31,1.31,0,0,0-1.31,1.31v3.646a1.31,1.31,0,0,1-1.31,1.31H745.4a1.31,1.31,0,0,1-1.31-1.31v-3.646a1.31,1.31,0,0,0-1.31-1.31h-3.646a1.31,1.31,0,0,1-1.31-1.31v-4.329a1.31,1.31,0,0,1,1.31-1.31h3.646a1.31,1.31,0,0,0,1.31-1.31V3581a1.31,1.31,0,0,1,1.31-1.31h4.329a1.31,1.31,0,0,1,1.31,1.31v3.646a1.31,1.31,0,0,0,1.31,1.31H756a1.31,1.31,0,0,1,1.31,1.31Z" transform="translate(-731.603 -3568.792)" fill="#fff"/>
      </g>
      <g id="Group_1305" data-name="Group 1305" transform="translate(3.776)">
        <rect id="Rectangle_423" data-name="Rectangle 423" width="24.373" height="7.895" rx="3.948" fill="#00728b"/>
        <g id="Group_1304" data-name="Group 1304" transform="translate(3.195 1.202)">
          <rect id="Rectangle_424" data-name="Rectangle 424" width="1.201" height="5.235" rx="0.601" fill="#fff"/>
          <rect id="Rectangle_425" data-name="Rectangle 425" width="1.201" height="5.235" rx="0.601" transform="translate(16.649)" fill="#fff"/>
        </g>
        <rect id="Rectangle_426" data-name="Rectangle 426" width="1.201" height="5.235" rx="0.601" transform="translate(11.586 1.202)" fill="#fff"/>
      </g>
    </g>
    <g id="Group_1309" data-name="Group 1309" transform="translate(602.244 3391)">
      <g id="Group_1307" data-name="Group 1307" transform="translate(13.714 0)">
        <path id="Path_1523" data-name="Path 1523" d="M776.241,3402.2a11.2,11.2,0,0,0-11.2-11.2h0a11.2,11.2,0,0,0-11.2,11.2v8.828h3.4V3402.4a7.935,7.935,0,0,1,7.508-8,7.817,7.817,0,0,1,8.11,7.8v8.828h3.4Z" transform="translate(-753.833 -3391)" fill="#fff"/>
      </g>
      <g id="Group_1308" data-name="Group 1308" transform="translate(0 22.069)">
        <path id="Path_1524" data-name="Path 1524" d="M736.322,3468.393v9.506a4.244,4.244,0,0,0,4.244,4.244h6.111a4.244,4.244,0,0,1,4.244,4.244v7.915a13.5,13.5,0,0,0,1.981,7.039l1.131,1.852a4.241,4.241,0,0,1,.623,2.213v24.907a1.74,1.74,0,0,0,1.74,1.74h10.822L762.8,3456H713.914l-.473,8.148h18.637A4.244,4.244,0,0,1,736.322,3468.393Z" transform="translate(-713.441 -3456)" fill="#c7b299"/>
      </g>
    </g>
    <g id="Group_1310" data-name="Group 1310" transform="translate(545.083 3411.371)">
      <rect id="Rectangle_427" data-name="Rectangle 427" width="10.197" height="13.596" transform="translate(19.438 13.596)" fill="#fff"/>
      <path id="Path_1525" data-name="Path 1525" d="M562.4,3491.044H548.11a3.027,3.027,0,0,0-3.027,3.027v7.541a3.027,3.027,0,0,0,3.027,3.027H562.4Z" transform="translate(-545.083 -3477.448)" fill="#ecaeff"/>
      <path id="Path_1526" data-name="Path 1526" d="M638.623,3504.639h40.628a2.39,2.39,0,0,0,2.39-2.39v-8.816a2.39,2.39,0,0,0-2.39-2.39H638.623Z" transform="translate(-606.864 -3477.448)" fill="#ecaeff"/>
      <path id="Path_1527" data-name="Path 1527" d="M638.623,3647.464v11.047h25.111a2.462,2.462,0,0,0,2.462-2.461v-8.585Z" transform="translate(-606.864 -3580.76)" fill="#ecaeff"/>
      <rect id="Rectangle_428" data-name="Rectangle 428" width="54.339" height="9.772" transform="translate(4.992 54.808)" fill="#fff"/>
      <path id="Path_1528" data-name="Path 1528" d="M667.48,3555.794l2.18-3.89a4.163,4.163,0,0,0,.532-2.036V3538.6H638.623v22.942H666.2v-.825A10.06,10.06,0,0,1,667.48,3555.794Z" transform="translate(-606.864 -3508.855)" fill="#ecaeff"/>
      <rect id="Rectangle_429" data-name="Rectangle 429" width="10.197" height="11.046" transform="translate(19.438 66.704)" fill="#fff"/>
      <rect id="Rectangle_430" data-name="Rectangle 430" width="10.197" height="22.943" transform="translate(19.438 29.741)" fill="#fff"/>
      <path id="Path_1529" data-name="Path 1529" d="M559.474,3655.625a2.886,2.886,0,0,0,2.886,2.886H571.9v-11.047H559.474Z" transform="translate(-554.588 -3580.76)" fill="#ecaeff"/>
      <rect id="Rectangle_431" data-name="Rectangle 431" width="12.427" height="22.943" transform="translate(4.886 29.741)" fill="#ecaeff"/>
      <path id="Path_1530" data-name="Path 1530" d="M612.53,3460.079a4.074,4.074,0,0,0-4.074-4.074h-2.048a4.074,4.074,0,0,0-4.074,4.074v5.273h10.2Z" transform="translate(-582.895 -3454.305)" fill="#fff"/>
      <path id="Path_1531" data-name="Path 1531" d="M571.844,3462.471v-5.761s-3.454-6.524-8.237-5.626-3.72,11.386-3.72,11.386Z" transform="translate(-554.794 -3451)" fill="#fff"/>
      <path id="Path_1532" data-name="Path 1532" d="M646.386,3451.085c-4.782-.9-8.237,5.626-8.237,5.626v5.761h11.957S651.168,3451.984,646.386,3451.085Z" transform="translate(-606.551 -3451)" fill="#fff"/>
    </g>
  </g>
</svg>
