<svg xmlns="http://www.w3.org/2000/svg" width="143.685" height="90.141" viewBox="0 0 143.685 90.141">
  <g id="food_ico" transform="translate(-551.748 -1917.627)">
    <g id="Group_1222" data-name="Group 1222" transform="translate(616.14 1920.14)">
      <path id="Path_1355" data-name="Path 1355" d="M955.189,2009.333a2.841,2.841,0,0,0-3.393-2.153l-.394.088a2.229,2.229,0,0,0-1.662,2.769c.894,3.219,2.194,9.383,1.032,15a46.356,46.356,0,0,1-5.478,13.473,2.152,2.152,0,0,0,.566,2.826h0a3.492,3.492,0,0,0,5.169-1.158c1.947-3.656,4.692-9.568,5.3-14.8A50.6,50.6,0,0,0,955.189,2009.333Z" transform="translate(-877.272 -1979.561)" fill="#7f3500"/>
      <path id="Path_1356" data-name="Path 1356" d="M927.919,2042.364a3.942,3.942,0,1,0-.806-5.516A3.946,3.946,0,0,0,927.919,2042.364Z" transform="translate(-864.883 -1998.255)" fill="#7e0000"/>
      <path id="Path_1357" data-name="Path 1357" d="M916.4,2074.48a3.947,3.947,0,0,0-5.516.806c-.025.034-.048.069-.072.1l6.411,4.584A3.946,3.946,0,0,0,916.4,2074.48Z" transform="translate(-854.574 -2023.78)" fill="#7e0000"/>
      <path id="Path_1358" data-name="Path 1358" d="M888.148,2031.582l4.59,3.282c.028-.039.054-.079.083-.117a4.878,4.878,0,0,1,7.852,5.791l2.553,1.825a.739.739,0,0,0,.926-.05c.946-.857,3.074-3.591,4.776-11.678,1.912-9.085.126-14.868-.587-16.673a.741.741,0,0,0-.879-.443l-16.344,5.81a4.874,4.874,0,0,1-6.374,5.349,12.424,12.424,0,0,1,1.554,2.05A21.573,21.573,0,0,1,888.148,2031.582Zm10.6-9.749a4.878,4.878,0,1,1,1,6.827A4.885,4.885,0,0,1,898.744,2021.833Z" transform="translate(-837.265 -1983.8)" fill="#f6dd18"/>
      <path id="Path_1359" data-name="Path 1359" d="M880.494,2035.383a3.94,3.94,0,0,0,6.274-3.565l-7.216,2.565A3.924,3.924,0,0,0,880.494,2035.383Z" transform="translate(-833.818 -1995.968)" fill="#7e0000"/>
      <path id="Path_1360" data-name="Path 1360" d="M880.166,1933.022c3.237.826,9.231,2.766,13.521,6.567a46.339,46.339,0,0,1,8.961,11.455,2.153,2.153,0,0,0,2.733.916h0a3.492,3.492,0,0,0,1.567-5.06c-2.2-3.508-5.964-8.831-10.2-11.963a50.593,50.593,0,0,0-14.478-6.993,2.841,2.841,0,0,0-3.556,1.872l-.12.386A2.228,2.228,0,0,0,880.166,1933.022Z" transform="translate(-833.113 -1926.906)" fill="#7f3500"/>
      <path id="Path_1361" data-name="Path 1361" d="M866.584,1976.328l.768-.351a4.875,4.875,0,0,1,8.381-3.836l15.621-7.149a.739.739,0,0,0,.417-.828c-.272-1.247-1.585-4.453-7.752-9.953-6.929-6.179-12.834-7.508-14.754-7.787a.741.741,0,0,0-.822.542l-4.917,27.136.019.01A28.93,28.93,0,0,1,866.584,1976.328Zm3.817-23.284a4.878,4.878,0,1,1,1,6.827A4.884,4.884,0,0,1,870.4,1953.044Z" transform="translate(-823.174 -1939.256)" fill="#f6dd18"/>
      <path id="Path_1362" data-name="Path 1362" d="M878.417,2022.878a3.92,3.92,0,0,0-.778,2.4l6.551-3c-.082-.073-.167-.143-.257-.21A3.946,3.946,0,0,0,878.417,2022.878Z" transform="translate(-832.547 -1988.978)" fill="#7e0000"/>
      <path id="Path_1363" data-name="Path 1363" d="M885.495,1970.2a3.942,3.942,0,1,0-.806-5.516A3.946,3.946,0,0,0,885.495,1970.2Z" transform="translate(-836.711 -1950.332)" fill="#7e0000"/>
      <path id="Path_1364" data-name="Path 1364" d="M752.658,1986.478a2.153,2.153,0,0,0-.719-2.791h0a3.492,3.492,0,0,0-5.1,1.44,60,60,0,0,0-3.422,9.128c1.568-.182,4.183-.463,6.175-.665A52.123,52.123,0,0,1,752.658,1986.478Z" transform="translate(-743.419 -1963.62)" fill="#7f3500"/>
      <path id="Path_1365" data-name="Path 1365" d="M793.3,2004.268l-6.013-3.82a3.933,3.933,0,0,0,2.954,4.31q.747.037,1.443.085A3.962,3.962,0,0,0,793.3,2004.268Z" transform="translate(-772.526 -1975.137)" fill="#7e0000"/>
      <path id="Path_1366" data-name="Path 1366" d="M773.487,2000.137a4.884,4.884,0,0,1-1.65-4.781l-2.582-1.64a.739.739,0,0,0-.922.1c-.667.674-1.929,2.422-3.049,6.626.592-.058,1.057-.1,1.319-.119C769.089,2000.14,771.4,2000.1,773.487,2000.137Z" transform="translate(-757.938 -1970.59)" fill="#f6dd18"/>
      <path id="Path_1367" data-name="Path 1367" d="M770.326,1943.21a2.153,2.153,0,0,0,2.87-.267,46.344,46.344,0,0,1,11.342-9.1c5.045-2.72,11.324-3.238,14.664-3.3a2.228,2.228,0,0,0,2.178-2.385l-.028-.4a2.842,2.842,0,0,0-3.034-2.636,50.6,50.6,0,0,0-15.693,3.5c-4.842,2.08-9.721,6.4-12.667,9.313A3.492,3.492,0,0,0,770.326,1943.21Z" transform="translate(-760.353 -1925.107)" fill="#7f3500"/>
      <path id="Path_1368" data-name="Path 1368" d="M810.349,1945.579a.741.741,0,0,0-.676-.715c-1.933-.167-7.985-.223-16.144,4.208-7.262,3.945-9.273,6.766-9.823,7.918a.74.74,0,0,0,.217.9l2.42,1.877a4.877,4.877,0,0,1,7.142,5.541l5.127,3.978a75.98,75.98,0,0,1,10.364,3.015Zm-3.219,22.34a4.879,4.879,0,1,1-1-6.827A4.884,4.884,0,0,1,807.129,1967.919Z" transform="translate(-770.124 -1938.191)" fill="#f6dd18"/>
      <path id="Path_1369" data-name="Path 1369" d="M798.108,1990.949a3.945,3.945,0,0,0-3.987-.426l5.511,4.276A3.944,3.944,0,0,0,798.108,1990.949Z" transform="translate(-777.088 -1968.312)" fill="#7e0000"/>
      <path id="Path_1370" data-name="Path 1370" d="M836.491,1993.971a3.942,3.942,0,1,0,.806,5.516A3.946,3.946,0,0,0,836.491,1993.971Z" transform="translate(-801.043 -1970.318)" fill="#7e0000"/>
      <path id="Path_1371" data-name="Path 1371" d="M911.024,2119.347a2.152,2.152,0,0,0-2.875.2,46.341,46.341,0,0,1-11.547,8.843,21.614,21.614,0,0,1-2.275.993l.932,1.43a4.613,4.613,0,0,1,.749,2.521v1.184c.8-.258,1.6-.542,2.388-.859,4.888-1.969,9.865-6.179,12.876-9.023A3.492,3.492,0,0,0,911.024,2119.347Z" transform="translate(-843.629 -2053.788)" fill="#7f3500"/>
      <path id="Path_1372" data-name="Path 1372" d="M902.964,2093.018a3.942,3.942,0,0,0,6.213,4.853c.027-.034.051-.069.077-.1l-6.107-4.965C903.085,2092.872,903.023,2092.943,902.964,2093.018Z" transform="translate(-848.811 -2036.464)" fill="#7e0000"/>
      <path id="Path_1373" data-name="Path 1373" d="M880.263,2123.606a3.937,3.937,0,0,0-.8-7.263l.018,4.721A4.608,4.608,0,0,0,880.263,2123.606Z" transform="translate(-833.761 -2052.097)" fill="#7e0000"/>
      <path id="Path_1374" data-name="Path 1374" d="M880,2087.191c-1.846,1.974-.978,3.542-.968,6.244v.125a4.876,4.876,0,0,1,1.407,8.965,4.6,4.6,0,0,0,1.185.844h0a4.611,4.611,0,0,1,1.5,1.185,40.63,40.63,0,0,0,4.009-1.8c7.35-3.778,9.424-6.553,10-7.692a.739.739,0,0,0-.2-.906l-2.436-1.981c-.022.029-.043.06-.066.089a4.878,4.878,0,1,1-7.689-6.006c.062-.08.127-.156.193-.231l-3.119-2.536C882.778,2084.653,880.884,2086.248,880,2087.191Z" transform="translate(-833.333 -2030.282)" fill="#f6dd18"/>
    </g>
    <g id="Group_1223" data-name="Group 1223" transform="translate(556.163 1973.377)">
      <path id="Rectangle_388" data-name="Rectangle 388" d="M1.41,0h61.5a1.41,1.41,0,0,1,1.41,1.41v0a8.227,8.227,0,0,1-8.227,8.227H8.227A8.227,8.227,0,0,1,0,1.41v0A1.41,1.41,0,0,1,1.41,0Z" transform="translate(6.54 23.695) rotate(0.944)" fill="#ff9735"/>
      <path id="Rectangle_389" data-name="Rectangle 389" d="M1.41,0h61.5a1.41,1.41,0,0,1,1.41,1.41v0a8.227,8.227,0,0,1-8.227,8.227H8.227A8.227,8.227,0,0,1,0,1.41v0A1.41,1.41,0,0,1,1.41,0Z" transform="matrix(-1, -0.016, 0.016, -1, 71.083, 10.695)" fill="#ff9735"/>
      <rect id="Rectangle_390" data-name="Rectangle 390" width="68.535" height="8.735" transform="translate(4.349 12.419)" fill="#ff0"/>
      <path id="Path_1375" data-name="Path 1375" d="M636.376,2117.519l-65.763-1.083a5.438,5.438,0,0,0-5.723,5.12h0a5.437,5.437,0,0,0,5.551,5.306l65.763,1.083a5.437,5.437,0,0,0,5.723-5.12h0A5.437,5.437,0,0,0,636.376,2117.519Zm-8.893,6.685a1.13,1.13,0,0,1-1.509.032c-2.119-1.866-4.194-2.77-6.169-2.686a5.87,5.87,0,0,0-3.509,1.5,8.635,8.635,0,0,1-4.5,1.991c-2.694.292-4.535-.827-6.159-1.815-1.586-.965-3.084-1.876-5.436-1.69a6.357,6.357,0,0,0-2.819.892,6.247,6.247,0,0,1-3.891.9,10.33,10.33,0,0,1-4.938-1.938c-1.146-.735-1.777-1.109-2.469-.915-.506.142-.721.475-1.16,1.214a7.541,7.541,0,0,1-1.551,1.986,8.659,8.659,0,0,1-6.038,1.787,27.979,27.979,0,0,1-6.793-1.122.98.98,0,0,1-.723-1.228,1.08,1.08,0,0,1,1.325-.666c5.31,1.456,8.931,1.385,10.762-.21a5.631,5.631,0,0,0,1.145-1.5,3.96,3.96,0,0,1,2.408-2.149c1.713-.48,3.032.365,4.307,1.183a8.227,8.227,0,0,0,3.912,1.594,4.013,4.013,0,0,0,2.636-.644,8.554,8.554,0,0,1,3.7-1.146,10.469,10.469,0,0,1,6.793,2.01c1.509.918,2.813,1.712,4.733,1.5a6.527,6.527,0,0,0,3.424-1.575,7.948,7.948,0,0,1,4.74-1.931c2.581-.11,5.186.978,7.743,3.231A.935.935,0,0,1,627.483,2124.2Zm9.231-.618-4.433,1.429a1.142,1.142,0,0,1-.37.055,1.069,1.069,0,0,1-.991-.663.968.968,0,0,1,.653-1.258l4.433-1.429a1.1,1.1,0,0,1,1.361.608A.968.968,0,0,1,636.714,2123.586Z" transform="translate(-564.889 -2105.395)" fill="#7e0000"/>
    </g>
    <path id="Path_1376" data-name="Path 1376" d="M808.628,2146.63H784.186a8.644,8.644,0,0,1-3.689,4.08.372.372,0,0,0-.184.22l-1.646,5.351a6.7,6.7,0,0,1-2.155,3.211h32.116a5.313,5.313,0,0,0,5.313-5.313v-2.236A5.313,5.313,0,0,0,808.628,2146.63Z" transform="translate(-149.254 -152.069)" fill="#ff9735"/>
    <path id="Path_1377" data-name="Path 1377" d="M791.152,2095.491a1.781,1.781,0,0,1,1.25.51l5.83,5.729a1.783,1.783,0,0,0,2.859-.507l2.075-4.416a1.777,1.777,0,0,1,1.609-1.017H808.2a1.768,1.768,0,0,0,1.776-1.761v-.366a1.768,1.768,0,0,0-1.776-1.761H780.928a12.806,12.806,0,0,1,1.177,3.589Z" transform="translate(-152.186 -115.727)" fill="#ff0"/>
    <path id="Path_1378" data-name="Path 1378" d="M785.035,2110.829s5.514,3.151,5.514,7.877a9.574,9.574,0,0,1-.085,1.278h19.077a5.065,5.065,0,0,0,5.086-5.044h0a5.065,5.065,0,0,0-5.086-5.044h-1.347a2,2,0,0,0-1.326,1.085l-2.347,4.994a2.017,2.017,0,0,1-3.234.574l-6.595-6.48a1.994,1.994,0,0,0-.205-.173h-9.426C785.068,2110.478,785.035,2110.829,785.035,2110.829Z" transform="translate(-154.914 -127.676)" fill="#7e0000"/>
    <g id="Group_1224" data-name="Group 1224" transform="translate(551.748 1917.627)">
      <path id="Path_1379" data-name="Path 1379" d="M611.536,2053.979h14.205c-2.351-3.068-3.984-7.444.466-11.665h-15.35Z" transform="translate(-590.999 -2000.425)" fill="#00b5b0"/>
      <path id="Path_1380" data-name="Path 1380" d="M608.633,2004.091h19.708c4.183-2.242,10.593-4.335,20.136-6.031.267-.047.526-.089.791-.134l.409-8.78H607.764Z" transform="translate(-588.945 -1965.119)" fill="#f2f2f2"/>
      <rect id="Rectangle_391" data-name="Rectangle 391" width="47.753" height="5.103" rx="2.552" transform="translate(16.071 16.737)" fill="#f2f2f2"/>
      <path id="Path_1381" data-name="Path 1381" d="M585.68,1932.9h6.2l-6.062-10.352-31.119-4.9a2.551,2.551,0,0,0-2.917,2.124h0a2.552,2.552,0,0,0,2.124,2.917l28.725,4.519Z" transform="translate(-551.748 -1917.626)" fill="#f2f2f2"/>
    </g>
    <rect id="Rectangle_392" data-name="Rectangle 392" width="37.963" height="13.102" transform="translate(605.193 1955.896)" fill="#7f3500"/>
    <path id="Path_1382" data-name="Path 1382" d="M703.125,2043.2h31.728a5.528,5.528,0,0,0,3.52-1.218c1.174-.968,2.117-2.577.839-5.051-2.421-4.689-10.591-20.9-50.172-14.27-28.807,4.826-25.267,13.506-21.205,17.875h28.278S700.669,2040.537,703.125,2043.2Zm9.085-12.177h2.036v4.935H712.21Zm-7.728-5.944h2.036v4.935h-2.036Zm-6.521,2.468H700v4.935h-2.036Zm-12.44,7.4h-2.035v-4.935h2.035Zm10.178,2.467h-2.036v-4.935H695.7Z" transform="translate(-75.287 -68.705)" fill="#ff9735"/>
  </g>
</svg>
