<svg xmlns="http://www.w3.org/2000/svg" width="86.985" height="86.985" viewBox="0 0 86.985 86.985"><g transform="translate(-3429.265 -10412.015)"><path d="M3454.355,10441.553a23.092,23.092,0,0,1,34.74-2.384l1.8,1.8,14.416-14.416-1.8-1.8a43.494,43.494,0,0,0-61.508,0q-1.117,1.119-2.144,2.3Z" fill="#7e0000"/><path d="M3501.208,10488.406q1.184-1.028,2.3-2.146a43.2,43.2,0,0,0,12.739-30.754,43.941,43.941,0,0,0-.712-7.879l-.383-2.089h-44.946v20.387h23.182a22.983,22.983,0,0,1-6.659,8Z" fill="#7e0000"/><path d="M3482.2,10476.609a23.135,23.135,0,0,1-27.849-7.147l-14.5,14.5q1.026,1.184,2.144,2.3a43.517,43.517,0,0,0,55.13,5.278Z" fill="#7e0000"/><path d="M3451.667,10464.942a23.1,23.1,0,0,1,0-18.869l-14.941-14.942a43.549,43.549,0,0,0,0,48.752Z" fill="#7e0000"/></g></svg>