<svg xmlns="http://www.w3.org/2000/svg" width="139.38" height="117.017" viewBox="0 0 139.38 117.017">
  <g id="healthy_text" transform="translate(-1046.431 -2282.539)">
    <g id="Group_1240" data-name="Group 1240" transform="translate(1069.835 2315.853)">
      <g id="Group_1238" data-name="Group 1238" transform="translate(0 0)">
        <path id="Path_1402" data-name="Path 1402" d="M1111.967,2381.166h-.266a8.8,8.8,0,0,1-4.644-1.306,9.6,9.6,0,0,1-3.4-3.47,9.4,9.4,0,0,1,8.187-13.991,9.6,9.6,0,0,1,4.909,1.354v.9a8.556,8.556,0,0,0-4.909-1.548,8.691,8.691,0,0,0-8.634,8.67,8.4,8.4,0,0,0,2.539,6.131,8.273,8.273,0,0,0,6.095,2.563,8.559,8.559,0,0,0,4.909-1.548v.894A8.969,8.969,0,0,1,1111.967,2381.166Z" transform="translate(-1102.414 -2362.327)" fill="#fff"/>
        <path id="Path_1403" data-name="Path 1403" d="M1145.537,2378.452a9.2,9.2,0,0,1-2.745-6.614,8.939,8.939,0,0,1,2.781-6.554,9.414,9.414,0,0,1,13.325-.012,8.965,8.965,0,0,1,2.757,6.566,9.206,9.206,0,0,1-2.733,6.626,8.779,8.779,0,0,1-6.53,2.818h-.363A8.747,8.747,0,0,1,1145.537,2378.452Zm15.321-6.566a8.389,8.389,0,0,0-2.527-6.119,8.571,8.571,0,0,0-12.2,0,8.656,8.656,0,0,0,0,12.25,8.526,8.526,0,0,0,12.189,0A8.4,8.4,0,0,0,1160.858,2371.886Z" transform="translate(-1125.911 -2362.394)" fill="#fff"/>
        <path id="Path_1404" data-name="Path 1404" d="M1213.454,2363.267v18.138h-.8v-17.2l-8.562,17.533-8.513-17.533v17.2h-.725v-18.138h1.161l8.15,16.735,8.174-16.735Z" transform="translate(-1156.209 -2362.832)" fill="#fff"/>
        <path id="Path_1405" data-name="Path 1405" d="M1248.308,2363.267h.8v18.138h-.8Z" transform="translate(-1187.315 -2362.832)" fill="#fff"/>
        <path id="Path_1406" data-name="Path 1406" d="M1259.183,2363.267h.774a8.54,8.54,0,0,1,6.554,2.673,9.49,9.49,0,0,1,.012,12.805,8.549,8.549,0,0,1-6.566,2.66h-.774Zm.967.725h-.194v16.664h.194a7.543,7.543,0,0,0,5.792-2.443,8.333,8.333,0,0,0,2.261-5.865,8.418,8.418,0,0,0-2.261-5.889A7.507,7.507,0,0,0,1260.15,2363.992Z" transform="translate(-1193.644 -2362.832)" fill="#fff"/>
        <path id="Path_1407" data-name="Path 1407" d="M1291.772,2362.226l9.069,18.574h-.847l-3.434-6.917h-9.7l-3.385,6.917h-.75Zm-.073,1.668-4.523,9.287h9.094Z" transform="translate(-1207.345 -2362.226)" fill="#fff"/>
      </g>
      <g id="Group_1239" data-name="Group 1239" transform="translate(0.49 23.89)">
        <path id="Path_1408" data-name="Path 1408" d="M1112.044,2432.828h-3.076v-9.613a1.607,1.607,0,0,0-.36-1.2,1.1,1.1,0,0,0-1.586,0,1.607,1.607,0,0,0-.36,1.2,43.308,43.308,0,0,0,.239,4.735q.239,2.164.622,3.99a26.283,26.283,0,0,0,.9,3.311l.966,2.753q.349,1,.807,2.3a29.652,29.652,0,0,1,.872,3.1,39.371,39.371,0,0,1,.7,4.2,48.925,48.925,0,0,1,.281,5.6,3.906,3.906,0,0,1-.36,1.742,3.4,3.4,0,0,1-.961,1.2,3.965,3.965,0,0,1-1.358.685,5.669,5.669,0,0,1-3.1,0,3.945,3.945,0,0,1-1.358-.685,3.4,3.4,0,0,1-.961-1.2,3.907,3.907,0,0,1-.36-1.742v-9.613h3.076v9.613a1.607,1.607,0,0,0,.36,1.2,1.1,1.1,0,0,0,1.586,0,1.608,1.608,0,0,0,.36-1.2,42.975,42.975,0,0,0-.3-5.442,34.6,34.6,0,0,0-.763-4.132q-.46-1.79-.956-3.156l-.908-2.495q-.4-1.107-.911-2.506a19.551,19.551,0,0,1-.834-3.2q-.324-1.8-.516-4.049t-.192-5.011a3.832,3.832,0,0,1,.36-1.73,3.432,3.432,0,0,1,.961-1.19,4.136,4.136,0,0,1,1.358-.7,5.389,5.389,0,0,1,3.1,0,4.14,4.14,0,0,1,1.358.7,3.435,3.435,0,0,1,.961,1.19,3.832,3.832,0,0,1,.36,1.73Z" transform="translate(-1103.585 -2419.37)" fill="#fff"/>
        <path id="Path_1409" data-name="Path 1409" d="M1138.566,2457.2h-2.894l-.663-7.954h-2.139l-.446,7.954h-3.087l2.86-36.914h3.291Zm-3.725-10.478-.889-18.745-.913,18.745Z" transform="translate(-1118.572 -2419.905)" fill="#fff"/>
        <path id="Path_1410" data-name="Path 1410" d="M1160.007,2420.289V2454.9h3.076v2.307h-6.152v-36.914Z" transform="translate(-1134.629 -2419.905)" fill="#fff"/>
        <path id="Path_1411" data-name="Path 1411" d="M1180.709,2420.289h3.076v33.453a3.907,3.907,0,0,1-.36,1.742,3.4,3.4,0,0,1-.962,1.2,3.945,3.945,0,0,1-1.358.685,5.661,5.661,0,0,1-3.1,0,3.937,3.937,0,0,1-1.358-.685,3.392,3.392,0,0,1-.962-1.2,3.912,3.912,0,0,1-.36-1.742v-33.453h3.076v33.453a1.609,1.609,0,0,0,.36,1.2,1.1,1.1,0,0,0,1.586,0,1.607,1.607,0,0,0,.361-1.2Z" transform="translate(-1145.334 -2419.905)" fill="#fff"/>
        <path id="Path_1412" data-name="Path 1412" d="M1212.147,2453.958a2.619,2.619,0,0,1-2.043,2.86,7.083,7.083,0,0,1-1.178.228q-.7.085-1.923.133-1.225.025-2.163.024h-1.923v-36.914q.985,0,1.982.012t2.031.036a14.774,14.774,0,0,1,3.124.313,3.019,3.019,0,0,1,1.562.925,2.771,2.771,0,0,1,.528,1.814Zm-3.076-30.595a.542.542,0,0,0-.433-.576,12.741,12.741,0,0,0-2.643-.144v32.228a12.75,12.75,0,0,0,2.643-.144.579.579,0,0,0,.433-.6Z" transform="translate(-1161.391 -2419.905)" fill="#fff"/>
        <path id="Path_1413" data-name="Path 1413" d="M1239.74,2457.2h-2.894l-.663-7.954h-2.139l-.446,7.954h-3.087l2.86-36.914h3.292Zm-3.725-10.478-.889-18.745-.914,18.745Z" transform="translate(-1177.448 -2419.905)" fill="#fff"/>
        <path id="Path_1414" data-name="Path 1414" d="M1267.333,2435.669a2.465,2.465,0,0,1-.6,1.779,3.855,3.855,0,0,1-1.923.938,3.591,3.591,0,0,1,1.923.889,2.465,2.465,0,0,1,.6,1.778v12.3a3.947,3.947,0,0,1-.529,2.223,3.079,3.079,0,0,1-1.394,1.142,5.947,5.947,0,0,1-1.971.421q-1.106.059-2.259.06H1258.1v-36.914h3.076q1.442,0,2.583.06a5.356,5.356,0,0,1,1.935.421,2.542,2.542,0,0,1,1.214,1.141,4.771,4.771,0,0,1,.421,2.223Zm-6.152,1.539h2.307a.671.671,0,0,0,.445-.132.758.758,0,0,0,.228-.349,1.814,1.814,0,0,0,.084-.493c.008-.184.012-.373.012-.565v-11.535a2.033,2.033,0,0,0-.156-.889.941.941,0,0,0-.517-.457,2.909,2.909,0,0,0-.949-.168q-.589-.024-1.454-.024Zm3.076,3.845q0-.289-.012-.564a1.818,1.818,0,0,0-.084-.493.761.761,0,0,0-.228-.349.672.672,0,0,0-.445-.132h-2.307V2454.9q.528,0,1.082-.024a4.111,4.111,0,0,0,1-.156,1.511,1.511,0,0,0,.721-.444,1.34,1.34,0,0,0,.276-.913Z" transform="translate(-1193.506 -2419.905)" fill="#fff"/>
        <path id="Path_1415" data-name="Path 1415" d="M1290.613,2420.289V2454.9h3.076v2.307h-6.152v-36.914Z" transform="translate(-1210.633 -2419.905)" fill="#fff"/>
        <path id="Path_1416" data-name="Path 1416" d="M1312.085,2422.6h-3.077v13.843h3.077v2.307h-3.077v16.15h3.077v2.307h-6.153v-36.914h6.153Z" transform="translate(-1221.338 -2419.905)" fill="#fff"/>
      </g>
    </g>
    <g id="Group_1241" data-name="Group 1241" transform="translate(1046.431 2282.539)">
      <path id="Path_1417" data-name="Path 1417" d="M1158.853,2399.556h-85.635a13.372,13.372,0,0,1-13.374-11.265l-13.2-85a17.782,17.782,0,0,1,4.1-14.308,18.522,18.522,0,0,1,14.1-6.442H1167.4a18.518,18.518,0,0,1,14.111,6.456,17.779,17.779,0,0,1,4.081,14.329l-13.373,84.992A13.376,13.376,0,0,1,1158.853,2399.556Zm-94.015-114.508a16.018,16.018,0,0,0-12.2,5.566,15.279,15.279,0,0,0-3.524,12.291l13.2,85a10.876,10.876,0,0,0,10.9,9.142h85.635a10.881,10.881,0,0,0,10.892-9.122l13.373-84.991a15.276,15.276,0,0,0-3.509-12.31,16.016,16.016,0,0,0-12.2-5.577Z" transform="translate(-1046.431 -2282.539)" fill="#fff"/>
    </g>
    <g id="Group_1242" data-name="Group 1242" transform="translate(1101.478 2292.469)">
      <path id="Path_1418" data-name="Path 1418" d="M1202.377,2321.216a.929.929,0,0,0,.929.929h3.715a.929.929,0,0,0,.929-.929,14.924,14.924,0,0,0-29.848,0,.929.929,0,0,0,.929.929h19.2a.929.929,0,0,0,0-1.858h-4.5l-4.041-7.2a.929.929,0,0,0-1.62.909l3.531,6.3h-11.606a13.01,13.01,0,0,1,3.065-7.509l1.275,1.275a.929.929,0,0,0,1.314-1.314l-1.29-1.29a13.09,13.09,0,0,1,4.27-2.536l.464,1.73a.929.929,0,0,0,1.794-.48l-.469-1.75a13.136,13.136,0,0,1,4.956-.051l-.458,1.708a.929.929,0,0,0,1.794.481l.462-1.726a13.061,13.061,0,0,1,4.3,2.431l-1.229,1.229a.929.929,0,0,0,1.313,1.314l1.243-1.243a13.013,13.013,0,0,1,3.259,7.732h-2.754A.929.929,0,0,0,1202.377,2321.216Z" transform="translate(-1178.103 -2306.292)" fill="#fff"/>
    </g>
  </g>
</svg>
