<svg xmlns="http://www.w3.org/2000/svg" width="178.559" height="102.316" viewBox="0 0 178.559 102.316"><g transform="translate(-584.833 -2302.203)"><g transform="translate(607.656 2302.203)"><path d="M750.329,2431.361H642.685a2.914,2.914,0,0,0,0,5.771H750.329a2.914,2.914,0,0,0,0-5.771Z" transform="translate(-640.179 -2378.099)" fill="#fed660"/><path d="M647.114,2450.842a40.675,40.675,0,0,0,40.675,40.675h25.586a40.675,40.675,0,0,0,40.675-40.675H647.114Z" transform="translate(-644.254 -2389.547)" fill="#fed660"/><g transform="translate(8.02)"><path d="M703.091,2330.729a14.479,14.479,0,0,0-1.969,13.088c.39.516.782,1.08,1.175,1.658q.244.361.49.738c.292.447.581.892.852,1.341.28-.018.571-.031.871-.031a16.316,16.316,0,0,1,2.6.216c.282.045.55.133.828.193a16.586,16.586,0,0,1,1.661.417c.321.105.624.248.937.372.477.188.953.375,1.409.605.319.161.617.353.925.533.421.248.839.5,1.237.78.3.214.58.449.865.682.369.3.732.607,1.074.939.269.261.52.536.772.815.317.351.621.709.908,1.087.23.3.445.613.654.933.26.4.5.8.726,1.222.182.338.354.678.513,1.031.084.185.194.354.27.543h2.8c-.021-.136-.021-.269-.04-.4-.1-.67-.162-1.336-.2-2-.007-.151-.011-.3-.015-.452a20.655,20.655,0,0,1,.052-2.231c0-.043.005-.087.009-.13a20.182,20.182,0,0,1,2.741-8.573c.151-.258.334-.492.494-.743.107-.168.221-.334.334-.5.389-.575.794-1.135,1.227-1.675.139-.174.285-.346.43-.518.461-.545.938-1.073,1.437-1.581.079-.081.143-.166.224-.246a14.547,14.547,0,0,0-12.435-13.979c0-.051.008-.1.008-.154a8.3,8.3,0,0,1,8.3-8.3,2.074,2.074,0,0,0,0-4.148,12.437,12.437,0,0,0-10.369,5.58,12.436,12.436,0,0,0-10.368-5.58,2.074,2.074,0,0,0,0,4.148,8.3,8.3,0,0,1,8.293,8.3c0,.048,0,.1.007.144A14.476,14.476,0,0,0,703.091,2330.729Z" transform="translate(-683.564 -2308.117)" fill="#00ab37"/><path d="M763.9,2381.327c0,.065-.005.13,0,.2a17.613,17.613,0,0,0,.153,2.215c.019.14.042.282.064.423.037.244.106.494.153.74h4.02c.013-.034.033-.065.047-.1a22.879,22.879,0,0,1,1.157-2.47c.065-.12.13-.238.2-.356a22.654,22.654,0,0,1,13.524-10.691l.044-.013a22.876,22.876,0,0,1,2.934-.635c.329-.477.658-.955.941-1.419.077-.127.144-.249.217-.374.327-.556.623-1.1.882-1.641.066-.136.125-.269.186-.4.22-.484.406-.957.57-1.424.073-.209.142-.415.2-.615.121-.4.214-.789.292-1.174a7.393,7.393,0,0,0-.665-5.359,50.568,50.568,0,0,0-18.631,10.037,23.1,23.1,0,0,0-3.4,3.983l-.133.2A16.332,16.332,0,0,0,763.9,2381.327Z" transform="translate(-720.897 -2335.125)" fill="#00ab37"/><path d="M800.962,2397.906c-.279.02-.56.027-.836.059a18.571,18.571,0,0,0-1.949.342c-.229.051-.463.088-.689.147a18.509,18.509,0,0,0-2.036.677c-.155.061-.316.106-.468.171a18.69,18.69,0,0,0-2.134,1.075c-.069.041-.144.072-.213.113a18.61,18.61,0,0,0-7.085,7.694H818.99a18.477,18.477,0,0,0-1.448-2.429c-.068-.1-.151-.184-.221-.28a18.586,18.586,0,0,0-1.588-1.907c-.091-.1-.193-.181-.286-.274a19.075,19.075,0,0,0-1.841-1.618,18.452,18.452,0,0,0-2.358-1.53,18,18,0,0,0-2.306-1.065c-.122-.047-.246-.091-.369-.135a18.942,18.942,0,0,0-2.292-.655c-.159-.034-.316-.071-.476-.1a18.978,18.978,0,0,0-2.157-.278c-.243-.018-.484-.043-.729-.051A18.329,18.329,0,0,0,800.962,2397.906Z" transform="translate(-733.623 -2358.409)" fill="#e51510"/><path d="M866.934,2400.7q.616.914,1.146,1.9c.059.109.122.216.18.326a22.921,22.921,0,0,1,.984,2.153c.014.037.035.07.049.108h4.654a28.05,28.05,0,0,0,5.043-11.139,13.953,13.953,0,0,0-15.543,2.6,22.67,22.67,0,0,1,3.37,3.876C866.858,2400.585,866.894,2400.645,866.934,2400.7Z" transform="translate(-779.396 -2355.412)" fill="#00ab37"/><path d="M688.618,2409.695c-.207.128-.406.267-.6.407-.25.175-.495.354-.731.546-.212.173-.416.354-.617.54s-.4.388-.6.593-.381.416-.56.635-.345.441-.508.67-.321.456-.468.694c-.052.084-.094.175-.144.26h21.456c-.113-.193-.22-.39-.342-.577s-.231-.358-.356-.529a12.406,12.406,0,0,0-.894-1.071c-.1-.1-.181-.218-.281-.318a12.662,12.662,0,0,0-1.36-1.19c-.12-.091-.25-.165-.374-.251a12.607,12.607,0,0,0-1.155-.729c-.184-.1-.375-.19-.565-.283-.362-.176-.733-.337-1.113-.479-.205-.076-.411-.15-.621-.216a12.263,12.263,0,0,0-1.231-.309c-.19-.038-.377-.088-.569-.117a10.27,10.27,0,0,0-3.079-.071c-.194.023-.4.045-.561.069a12.439,12.439,0,0,0-1.74.38c-.026.008-.05.019-.076.027a12.322,12.322,0,0,0-1.466.55c-.16.073-.314.157-.471.236C689.258,2409.328,688.932,2409.5,688.618,2409.695Z" transform="translate(-674.176 -2364.265)" fill="#e51510"/><path d="M665.2,2396.151c.1-.254.233-.491.348-.738.076-.163.148-.327.229-.487a16.494,16.494,0,0,1,1.222-2.06c.029-.041.062-.077.091-.118a16.622,16.622,0,0,1,1.459-1.748c.1-.105.2-.211.3-.313a16.618,16.618,0,0,1,3.784-2.833c.18-.1.36-.194.544-.286a16.617,16.617,0,0,1,1.8-.774c.119-.043.228-.107.349-.147-.033-.051-.067-.111-.1-.162-.124-.188-.247-.36-.37-.541-.4-.579-.774-1.1-1.136-1.575-4.852-6.323-9.038-6.929-10.669-7a19.836,19.836,0,0,0-1.892,18.776h4.04Z" transform="translate(-659.627 -2346.376)" fill="#00ab37"/><path d="M866.467,2310.608h0l-3.041-1.013,3.851-3.85a2.074,2.074,0,0,0-2.933-2.932l-3.849,3.848-1.012-3.038a2.075,2.075,0,1,0-3.937,1.312l1.179,3.541a6.759,6.759,0,0,0-1.328-.027,6.678,6.678,0,0,0-3.742,1.559l3.175,3.175a2.073,2.073,0,0,1-2.932,2.932l-3.031-3.031-3.092,3.486,2.833,2.834a2.074,2.074,0,0,1-2.932,2.932l-2.657-2.657-4.066,4.585,3.435,3.435a2.073,2.073,0,0,1-2.932,2.932l-3.259-3.258-3.706,4.18c-.007.032-.018.066-.025.1-.079.366-.175.742-.287,1.128-.056.2-.12.393-.184.59-.107.33-.214.658-.347,1q-.277.719-.622,1.453c-.11.233-.233.471-.355.709-.167.329-.327.657-.514.99l.053.006a22.786,22.786,0,0,1,8.1,2.155l21.371-18.95a1.779,1.779,0,0,1,.17-.135,6.708,6.708,0,0,0,2.638-6.946l2.666.888a2.073,2.073,0,0,0,1.312-3.933Z" transform="translate(-759.834 -2302.203)" fill="#e55e10"/></g><g transform="translate(89.772 61.343)"><path d="M998.529,2478.882a3.414,3.414,0,0,0-1.589-5.215,3.594,3.594,0,0,1-2.255-3.417,3.476,3.476,0,0,0-1.641-3.077,42.609,42.609,0,0,1-6.918,13.319,42.414,42.414,0,0,1,6.953,13.913,3.456,3.456,0,0,0,1.527-2.973,3.6,3.6,0,0,1,2.28-3.4,3.417,3.417,0,0,0,1.627-5.206A3.25,3.25,0,0,1,998.529,2478.882Z" transform="translate(-933.237 -2460.487)" fill="#7e0000"/><path d="M908.156,2507.722q-.3.307-.606.609a37.337,37.337,0,0,1-12.577,8.079,51.083,51.083,0,0,1-18.876,3.251,57.961,57.961,0,0,1-10.013-.867,49.566,49.566,0,0,1-8.211,5.952l51.585.145c2.863.008,4.991-2.292,4.371-4.719A38.092,38.092,0,0,0,908.156,2507.722Z" transform="translate(-857.873 -2484.314)" fill="#ff9735"/><path d="M892.428,2482.689c27.4.077,35.51-18.068,37.834-26.911.637-2.423-1.473-4.736-4.336-4.744l-27.063-.076a49.309,49.309,0,0,1-13.222,31.306A55.151,55.151,0,0,0,892.428,2482.689Z" transform="translate(-874.191 -2450.958)" fill="#ff9735"/></g></g><g transform="translate(584.833 2306.549)"><path d="M612.091,2500.848a45.809,45.809,0,0,1-2.54-5.136h-18.99a5.728,5.728,0,0,0-5.728,5.728V2512.5a5.728,5.728,0,0,0,5.728,5.728h24.888a5.728,5.728,0,0,0,5.728-5.728v-1.677A39.372,39.372,0,0,1,612.091,2500.848Z" transform="translate(-584.833 -2420.259)" fill="#90d3e2"/><path d="M603.005,2435.217a6.827,6.827,0,0,1-6.827-6.827c0-3.868,3.23-8.413,5.247-10.874v-1.928h10.666a36.072,36.072,0,0,1-.746-5.136H590.561a5.729,5.729,0,0,0-5.728,5.728v20.938a5.728,5.728,0,0,0,5.728,5.728h17.89c-1.074-2.889-1.931-5.768-2.586-8.264A6.788,6.788,0,0,1,603.005,2435.217Z" transform="translate(-584.833 -2370.159)" fill="#90d3e2"/><path d="M615.647,2351.524a27.4,27.4,0,0,1,2.165-2.639,16.365,16.365,0,0,0-13.028-6.447h-3.407a16.542,16.542,0,0,0-16.543,16.542v4.093a5.043,5.043,0,0,0,5.043,5.043h21.347C611.11,2363.155,611.871,2356.648,615.647,2351.524Z" transform="translate(-584.833 -2330.192)" fill="#90d3e2"/><rect width="18.172" height="11.061" rx="5.531" transform="translate(9.086)" fill="#e6e6e6"/></g></g></svg>