<svg xmlns="http://www.w3.org/2000/svg" width="127.578" height="127.578" viewBox="0 0 127.578 127.578"><g transform="translate(-3293.603 -1065.701)"><g transform="translate(3293.603 1065.701)"><path d="M2.742,0h110.14a2.742,2.742,0,0,1,2.742,2.742v0A15.992,15.992,0,0,1,99.632,18.733H15.992A15.992,15.992,0,0,1,0,2.742v0A2.742,2.742,0,0,1,2.742,0Z" transform="translate(32.573 114.331) rotate(-45)" fill="#ff9735"/><path d="M2.742,0h110.14a2.742,2.742,0,0,1,2.742,2.742v0A15.992,15.992,0,0,1,99.632,18.733H15.992A15.992,15.992,0,0,1,0,2.742v0A2.742,2.742,0,0,1,2.742,0Z" transform="translate(95.005 13.246) rotate(135)" fill="#ff9735"/><path d="M3398.67,1088.45l-83.6,83.6a10.134,10.134,0,0,0,0,14.332h0a10.134,10.134,0,0,0,14.332,0l83.6-83.6a10.136,10.136,0,0,0,0-14.332h0A10.135,10.135,0,0,0,3398.67,1088.45ZM3396.9,1109a1.919,1.919,0,0,1-1.839,2c-5.249.214-9.1,1.677-11.45,4.345-1.853,2.1-2.051,4.176-2.282,6.576-.246,2.566-.525,5.474-2.843,8.519-2.954,3.881-6.814,4.747-10.221,5.511-3.326.745-6.468,1.45-9.145,4.744a10.862,10.862,0,0,0-2.275,4.853,10.6,10.6,0,0,1-3.6,6.247c-3.009,2.6-6.258,3.246-8.869,3.765-2.456.488-3.765.8-4.359,1.956-.434.847-.238,1.575.245,3.143a14.6,14.6,0,0,1,.835,4.694c-.046,3.506-1.71,6.9-5.044,10.229a46.778,46.778,0,0,1-10.045,7.268,1.919,1.919,0,0,1-1.89-3.341c8.659-4.9,13.081-9.679,13.141-14.207a10.952,10.952,0,0,0-.665-3.512c-.542-1.759-1.157-3.753.007-6.024,1.469-2.866,4.295-3.427,7.027-3.971,2.393-.475,4.866-.967,7.106-2.9a6.813,6.813,0,0,0,2.394-4.282,14.622,14.622,0,0,1,3.019-6.334c3.517-4.329,7.643-5.253,11.283-6.069,3.166-.71,5.9-1.323,8.005-4.089,1.656-2.176,1.851-4.208,2.077-6.562.256-2.676.548-5.708,3.221-8.745,3.068-3.487,7.838-5.385,14.175-5.644A1.919,1.919,0,0,1,3396.9,1109Zm10.661-12.778-3.539,7.668a1.919,1.919,0,1,1-3.486-1.609l3.54-7.668a1.919,1.919,0,1,1,3.485,1.609Z" transform="translate(-3301.167 -1073.792)" fill="#7e0000"/></g><path d="M3404.535,1124a1.92,1.92,0,0,1-1.839,2c-5.249.214-9.1,1.677-11.449,4.345-1.853,2.1-2.052,4.177-2.282,6.576-.246,2.566-.525,5.474-2.843,8.519-2.954,3.881-6.815,4.747-10.221,5.511-3.325.745-6.468,1.45-9.144,4.744a10.865,10.865,0,0,0-2.275,4.853,10.6,10.6,0,0,1-3.6,6.247c-3.009,2.6-6.258,3.246-8.869,3.765-2.456.488-3.765.8-4.359,1.956-.434.847-.238,1.575.245,3.143a14.606,14.606,0,0,1,.835,4.693c-.046,3.506-1.71,6.9-5.044,10.229a46.791,46.791,0,0,1-10.045,7.268,1.919,1.919,0,0,1-1.89-3.341c8.659-4.9,13.081-9.679,13.141-14.207a10.958,10.958,0,0,0-.665-3.512c-.542-1.759-1.156-3.753.007-6.024,1.469-2.866,4.295-3.427,7.027-3.971,2.392-.475,4.865-.967,7.106-2.9a6.814,6.814,0,0,0,2.394-4.282,14.618,14.618,0,0,1,3.019-6.334c3.517-4.329,7.643-5.253,11.283-6.069,3.166-.71,5.9-1.323,8.005-4.089,1.656-2.176,1.851-4.208,2.077-6.562.256-2.676.548-5.708,3.221-8.745,3.068-3.487,7.838-5.385,14.175-5.645A1.92,1.92,0,0,1,3404.535,1124Z" transform="translate(-15.204 -23.094)" fill="#ff0"/><path d="M3468.641,1101.772l-3.539,7.668a1.919,1.919,0,0,1-3.486-1.609l3.54-7.668a1.919,1.919,0,1,1,3.485,1.609Z" transform="translate(-68.649 -13.64)" fill="#ff0"/></g></svg>