<svg xmlns="http://www.w3.org/2000/svg" width="123.538" height="161.455" viewBox="0 0 123.538 161.455">
  <g id="komer_ico" transform="translate(-564.809 -408.539)">
    <g id="Group_1203" data-name="Group 1203">
      <path id="Path_1326" data-name="Path 1326" d="M642.02,433.7a10.388,10.388,0,0,0,8.161-3.638,13.361,13.361,0,0,0,3.2-9.16,12.536,12.536,0,0,0-3.28-8.765,10.518,10.518,0,0,0-8.082-3.594,10.844,10.844,0,0,0-8.121,3.682,12.214,12.214,0,0,0-3.481,8.677,12.959,12.959,0,0,0,3.4,9.072A10.7,10.7,0,0,0,642.02,433.7Z" fill="#fd0"/>
      <path id="Path_1327" data-name="Path 1327" d="M611.615,433.7a10.545,10.545,0,0,0,8.162-3.638,13.164,13.164,0,0,0,3.28-9.16,12.411,12.411,0,0,0-3.36-8.721,10.8,10.8,0,0,0-16.2.044,12.362,12.362,0,0,0-3.4,8.677,13.141,13.141,0,0,0,3.321,9.072A10.551,10.551,0,0,0,611.615,433.7Z" fill="#fd0"/>
      <path id="Path_1328" data-name="Path 1328" d="M678.205,495.066a12.69,12.69,0,0,1-2.893-5.474,17,17,0,0,1-1.91.117,14.318,14.318,0,0,1-10.713-4.479,15.087,15.087,0,0,1-4.338-10.907,14.031,14.031,0,0,1,1.471-6.349,12.2,12.2,0,0,1-1.593-1.491,13.147,13.147,0,0,1-3.32-9.072,12.318,12.318,0,0,1,1.925-6.773,57.064,57.064,0,0,0-6.029-2.874,66.848,66.848,0,0,0-48.3,0,58.6,58.6,0,0,0-19.789,13.367,61.927,61.927,0,0,0-13.434,20.51,71.758,71.758,0,0,0-.041,49.788,61.092,61.092,0,0,0,13.475,20.422,59.934,59.934,0,0,0,19.869,13.541,62,62,0,0,0,24.029,4.6,62.689,62.689,0,0,0,24.068-4.6,58.8,58.8,0,0,0,19.91-13.541,60.188,60.188,0,0,0,13.353-20.336,67.669,67.669,0,0,0,4.4-24.893c0-2.721-.145-5.361-.4-7.938a12.038,12.038,0,0,1-1.537.107A10.55,10.55,0,0,1,678.205,495.066Zm-35.214,30.928a21.322,21.322,0,0,1-32.828,0q-6.468-7.713-6.469-19.547t6.469-19.5a21.4,21.4,0,0,1,32.828,0q6.471,7.671,6.47,19.5T642.991,525.994Z" fill="#fd0"/>
    </g>
  </g>
</svg>
