<svg xmlns="http://www.w3.org/2000/svg" width="119.283" height="81.267" viewBox="0 0 119.283 81.267"><g transform="translate(-1065.682 -1542.503)"><path d="M8.094-18.5a2.831,2.831,0,0,1-.434,1.807,1.619,1.619,0,0,1-1.3.506,1.426,1.426,0,0,1,.759.2,1.73,1.73,0,0,1,.542.524,2.429,2.429,0,0,1,.325.741,3.35,3.35,0,0,1,.108.849V0H5.781V-14.453a1.006,1.006,0,0,0-.2-.668,1.141,1.141,0,0,0-.524-.343,2.715,2.715,0,0,0-.741-.126q-.416-.018-.849-.018V0H1.156V-31.219H3.469q.867,0,1.7.045a4.462,4.462,0,0,1,1.481.316A2.316,2.316,0,0,1,7.7-30a2.967,2.967,0,0,1,.4,1.671ZM5.781-28.328A1.529,1.529,0,0,0,5.664-29a.708.708,0,0,0-.388-.343,2.2,2.2,0,0,0-.714-.126q-.443-.018-1.093-.018v12.719q.434,0,.849-.018a2.715,2.715,0,0,0,.741-.126,1.141,1.141,0,0,0,.524-.343,1.006,1.006,0,0,0,.2-.668Zm9.25,2.313H12.719v10.406h2.313v1.734H12.719V-1.734h2.313V0H10.406V-27.75h4.625Zm8.094,8.094H20.813v-7.227a1.208,1.208,0,0,0-.271-.9.856.856,0,0,0-.6-.253.856.856,0,0,0-.6.253,1.209,1.209,0,0,0-.271.9,32.552,32.552,0,0,0,.18,3.56q.18,1.626.467,3A19.828,19.828,0,0,0,20.4-16.1l.726,2.07.606,1.729a22.2,22.2,0,0,1,.655,2.334,29.493,29.493,0,0,1,.523,3.16A36.733,36.733,0,0,1,23.125-2.6a2.936,2.936,0,0,1-.271,1.309,2.554,2.554,0,0,1-.723.9,2.967,2.967,0,0,1-1.021.515,4.224,4.224,0,0,1-1.165.162A4.221,4.221,0,0,1,18.78.126a2.968,2.968,0,0,1-1.021-.515,2.555,2.555,0,0,1-.723-.9,2.939,2.939,0,0,1-.271-1.31V-9.828h2.313V-2.6a1.208,1.208,0,0,0,.271.9.856.856,0,0,0,.6.253.856.856,0,0,0,.6-.253,1.208,1.208,0,0,0,.271-.9,32.317,32.317,0,0,0-.228-4.091A25.952,25.952,0,0,0,20.012-9.8q-.346-1.346-.719-2.372l-.682-1.876-.685-1.884a14.691,14.691,0,0,1-.626-2.407q-.244-1.355-.388-3.044t-.145-3.767a2.881,2.881,0,0,1,.271-1.3,2.577,2.577,0,0,1,.723-.894,3.1,3.1,0,0,1,1.021-.524,4.014,4.014,0,0,1,1.165-.172,4.014,4.014,0,0,1,1.165.172,3.1,3.1,0,0,1,1.021.524,2.577,2.577,0,0,1,.723.894,2.881,2.881,0,0,1,.271,1.3Zm8.383-9.828v1.734H29.2V0H26.883V-26.016H24.57V-27.75ZM39.313,0H37.137l-.5-5.98H35.031L34.7,0h-2.32l2.15-27.75H37Zm-2.8-7.877-.668-14.092L35.157-7.877ZM45.094-27.75h2.313V-2.6a2.939,2.939,0,0,1-.271,1.31,2.555,2.555,0,0,1-.723.9,2.968,2.968,0,0,1-1.021.515,4.221,4.221,0,0,1-1.165.163A4.221,4.221,0,0,1,43.061.126a2.968,2.968,0,0,1-1.021-.515,2.555,2.555,0,0,1-.723-.9,2.939,2.939,0,0,1-.271-1.31V-27.75h2.313V-2.6a1.208,1.208,0,0,0,.271.9.856.856,0,0,0,.6.253.856.856,0,0,0,.6-.253,1.208,1.208,0,0,0,.271-.9ZM56.078-16.187a1.9,1.9,0,0,1-.434,1.337,2.471,2.471,0,0,1-1.3.668,2.68,2.68,0,0,1,1.3.7,1.9,1.9,0,0,1,.434,1.337V0H53.766V-12.141a1.641,1.641,0,0,0-.108-.668.7.7,0,0,0-.325-.343,1.382,1.382,0,0,0-.542-.126q-.325-.018-.759-.018V0H49.719V-27.75h2.6a9.267,9.267,0,0,1,2.014.19,2.472,2.472,0,0,1,1.292.668,2.053,2.053,0,0,1,.452,1.454Zm-2.312-8.672a1.641,1.641,0,0,0-.108-.668.7.7,0,0,0-.325-.343A1.382,1.382,0,0,0,52.79-26q-.325-.018-.759-.018v10.984q.434,0,.759-.018a1.382,1.382,0,0,0,.542-.126.7.7,0,0,0,.325-.343,1.641,1.641,0,0,0,.108-.668ZM64.75,0H62.575l-.5-5.98H60.468L60.133,0h-2.32l2.15-27.75h2.475Zm-2.8-7.877-.668-14.092L60.595-7.877ZM73.422,0H71.688l-3.18-16.111V0H66.484V-27.75h1.734l3.2,16.205V-27.75h2.005ZM81.8-27.75v1.734H79.492V0H77.18V-26.016H74.867V-27.75Zm6.07,1.734H85.563v10.406h2.313v1.734H85.563V-1.734h2.313V0H83.25V-27.75h4.625Zm8.094,8.094H93.656v-7.227a1.208,1.208,0,0,0-.271-.9.856.856,0,0,0-.6-.253.856.856,0,0,0-.6.253,1.209,1.209,0,0,0-.271.9,32.553,32.553,0,0,0,.18,3.56q.18,1.626.467,3a19.828,19.828,0,0,0,.679,2.489l.726,2.07.606,1.729a22.2,22.2,0,0,1,.655,2.334,29.492,29.492,0,0,1,.523,3.16A36.732,36.732,0,0,1,95.969-2.6,2.936,2.936,0,0,1,95.7-1.291a2.554,2.554,0,0,1-.723.9,2.967,2.967,0,0,1-1.021.515,4.224,4.224,0,0,1-1.165.162A4.221,4.221,0,0,1,91.624.126,2.968,2.968,0,0,1,90.6-.388a2.555,2.555,0,0,1-.723-.9,2.939,2.939,0,0,1-.271-1.31V-9.828h2.313V-2.6a1.208,1.208,0,0,0,.271.9.856.856,0,0,0,.6.253.856.856,0,0,0,.6-.253,1.208,1.208,0,0,0,.271-.9,32.318,32.318,0,0,0-.228-4.091A25.951,25.951,0,0,0,92.855-9.8q-.346-1.346-.719-2.372l-.682-1.876-.685-1.884a14.692,14.692,0,0,1-.626-2.407q-.244-1.355-.388-3.044t-.145-3.767a2.881,2.881,0,0,1,.271-1.3,2.577,2.577,0,0,1,.723-.894,3.1,3.1,0,0,1,1.021-.524,4.014,4.014,0,0,1,1.165-.172,4.014,4.014,0,0,1,1.165.172,3.1,3.1,0,0,1,1.021.524,2.577,2.577,0,0,1,.723.894,2.881,2.881,0,0,1,.271,1.3Z" transform="translate(1082.387 1573.722)" fill="#fff"/><g transform="translate(1065.247 1567.697)"><g transform="translate(18.513 15.448)"><path d="M1123.358,1677.443V1697.7h-6.1v-20.254a3.048,3.048,0,0,1,3.048-3.048h0A3.048,3.048,0,0,1,1123.358,1677.443Z" transform="translate(-1117.263 -1674.395)" fill="#fff"/><path d="M1152.172,1698.646a7.083,7.083,0,0,1,2.924,2.76,8.93,8.93,0,0,1,0,8.429,7.08,7.08,0,0,1-2.924,2.759,9.661,9.661,0,0,1-8.4,0,7.075,7.075,0,0,1-2.924-2.759,8.93,8.93,0,0,1,0-8.429,7.079,7.079,0,0,1,2.924-2.76,9.661,9.661,0,0,1,8.4,0Zm-5.629,4.983a2.986,2.986,0,0,0-.577,1.99,3.036,3.036,0,0,0,.563,1.99,1.866,1.866,0,0,0,2.87,0,3.727,3.727,0,0,0,0-3.981,1.852,1.852,0,0,0-2.856,0Z" transform="translate(-1131.772 -1689.396)" fill="#fff"/><path d="M1201.853,1699.387a7.637,7.637,0,0,1,2.622,4.723h-6.452a1.421,1.421,0,0,0-1.4-1.208,1.312,1.312,0,0,0-1.167.687,5.062,5.062,0,0,0,0,4.063,1.311,1.311,0,0,0,1.167.687,1.42,1.42,0,0,0,1.4-1.208h6.452a7.637,7.637,0,0,1-2.622,4.723,7.761,7.761,0,0,1-5.093,1.7,8.568,8.568,0,0,1-4.1-.961,6.831,6.831,0,0,1-2.8-2.759,9.364,9.364,0,0,1,0-8.429,6.835,6.835,0,0,1,2.8-2.76,8.574,8.574,0,0,1,4.1-.961A7.762,7.762,0,0,1,1201.853,1699.387Z" transform="translate(-1163.373 -1689.396)" fill="#fff"/><path d="M1244.839,1698.3a4.2,4.2,0,0,1,1.675,1.689v-2.114h6.067v15.485h-6.067v-2.114a4.2,4.2,0,0,1-1.675,1.689,5.243,5.243,0,0,1-2.609.617,5.859,5.859,0,0,1-3.268-.947,6.393,6.393,0,0,1-2.292-2.745,11.162,11.162,0,0,1,0-8.484,6.388,6.388,0,0,1,2.292-2.746,5.858,5.858,0,0,1,3.268-.948A5.241,5.241,0,0,1,1244.839,1698.3Zm-2.2,5.4a3.241,3.241,0,0,0,0,3.844,2.253,2.253,0,0,0,3.24,0,3.239,3.239,0,0,0,0-3.844,2.256,2.256,0,0,0-3.24,0Z" transform="translate(-1193.633 -1689.396)" fill="#fff"/><path d="M1328.809,1706.691h-9.747a2.44,2.44,0,0,0,.522,1.579,1.584,1.584,0,0,0,1.153.425,1.482,1.482,0,0,0,1.428-.906h6.452a6.709,6.709,0,0,1-1.387,2.952,7.452,7.452,0,0,1-2.663,2.059,8.187,8.187,0,0,1-3.528.755,8.568,8.568,0,0,1-4.1-.961,6.829,6.829,0,0,1-2.8-2.759,9.363,9.363,0,0,1,0-8.429,6.833,6.833,0,0,1,2.8-2.76,8.574,8.574,0,0,1,4.1-.961,8.672,8.672,0,0,1,4.1.948,6.817,6.817,0,0,1,2.8,2.7,8.234,8.234,0,0,1,1,4.146A5.684,5.684,0,0,1,1328.809,1706.691Zm-6.041-2.5a1.631,1.631,0,0,0-.494-1.3,1.83,1.83,0,0,0-1.236-.426,1.772,1.772,0,0,0-1.922,1.73Z" transform="translate(-1243.419 -1689.396)" fill="#fff"/><path d="M1373.156,1699.209a6.669,6.669,0,0,1,2.375,4.022h-5.684a1.716,1.716,0,0,0-1.867-1.318q-.851,0-.851.659,0,.467.618.714a12.374,12.374,0,0,0,1.963.522,19.489,19.489,0,0,1,3.006.782,5.251,5.251,0,0,1,2.155,1.469,4.017,4.017,0,0,1,.906,2.773,4.089,4.089,0,0,1-.769,2.444,5.008,5.008,0,0,1-2.252,1.675,9.206,9.206,0,0,1-3.487.6,8.921,8.921,0,0,1-5.327-1.428,6.136,6.136,0,0,1-2.444-4.118h5.848q.165,1.345,1.894,1.345.933,0,.934-.659a.825.825,0,0,0-.631-.769,11.736,11.736,0,0,0-2.032-.494,22.06,22.06,0,0,1-2.952-.769,4.883,4.883,0,0,1-2.045-1.4,3.946,3.946,0,0,1-.879-2.719,4.361,4.361,0,0,1,.741-2.5,4.928,4.928,0,0,1,2.2-1.73,8.886,8.886,0,0,1,3.542-.631A7.769,7.769,0,0,1,1373.156,1699.209Z" transform="translate(-1274.574 -1689.396)" fill="#fff"/></g><path d="M7.785,0,6.555-1.485q-.15.24-.255.375a2.346,2.346,0,0,1-.968.885,3.17,3.17,0,0,1-1.477.33A3.686,3.686,0,0,1,2.018-.33,2.964,2.964,0,0,1,.84-1.508,3.435,3.435,0,0,1,.435-3.18a3.238,3.238,0,0,1,.69-2.138,2.646,2.646,0,0,1,1.77-.967l-.18-.3a3.209,3.209,0,0,1-.36-.75,2.7,2.7,0,0,1-.12-.825A2.361,2.361,0,0,1,2.6-9.42a2.557,2.557,0,0,1,1.058-.938,3.671,3.671,0,0,1,1.673-.353,3.4,3.4,0,0,1,2.115.578A2.858,2.858,0,0,1,8.46-8.625,4.02,4.02,0,0,1,8.625-7.17H6.24q0-.255-.03-.555-.045-.855-.84-.855a.735.735,0,0,0-.533.195.658.658,0,0,0-.2.495.969.969,0,0,0,.112.465,4.906,4.906,0,0,0,.368.555L10.365,0Zm-3.9-2.025a1.182,1.182,0,0,0,.862-.33,1.125,1.125,0,0,0,.338-.84,1.132,1.132,0,0,0-.375-.87,1.283,1.283,0,0,0-.9-.345,1.194,1.194,0,0,0-.848.3,1.11,1.11,0,0,0-.322.855,1.179,1.179,0,0,0,.352.892A1.238,1.238,0,0,0,3.885-2.025Z" transform="translate(0 16)" fill="#fff"/><path d="M1114.621,1739.837a.977.977,0,0,0-.814.452,2.777,2.777,0,0,1-.245.329,4.9,4.9,0,0,0-1.2,3.269l.1,8.835a.981.981,0,0,0,.993.97h0a.981.981,0,0,0,.97-.993l-.064-5.563a.982.982,0,0,1,.97-.993h0a.982.982,0,0,1,.993.971l.064,5.563a.982.982,0,0,0,.993.971h0a.982.982,0,0,0,.97-.993l-.064-5.563a.981.981,0,0,1,.97-.993h0a.982.982,0,0,1,.993.97l.064,5.563a.982.982,0,0,0,.993.97h0a.981.981,0,0,0,.97-.992l-.1-8.835a4.9,4.9,0,0,0-1.273-3.241,2.73,2.73,0,0,1-.252-.323.977.977,0,0,0-.825-.433Z" transform="translate(-1095.594 -1701.058)" fill="#fff"/><path d="M1295.064,1706.819l.468-18.465.536-21.169a.977.977,0,0,0-.268-.7l-.085-.089a.976.976,0,0,0-1.074-.233,10.945,10.945,0,0,0-4.048,2.753,6.824,6.824,0,0,0-1.841,4.389l-.4,15.865a.976.976,0,0,0,.951,1l.213.006a.976.976,0,0,1,.948,1.055l-1.251,15.4c0,.024,0,.049,0,.074a2.929,2.929,0,0,0,5.856.111Zm-2.833.343a1.171,1.171,0,0,1-1.141-1.2l.089-3.479a1.171,1.171,0,1,1,2.341.059l-.088,3.479A1.171,1.171,0,0,1,1292.231,1707.163Z" transform="translate(-1208.944 -1653.6)" fill="#fff"/></g></g></svg>