<svg xmlns="http://www.w3.org/2000/svg" width="163.508" height="91.048" viewBox="0 0 163.508 91.048"><g transform="translate(-553.833 -1535.539)"><g transform="translate(553.833 1535.539)"><rect width="108.203" height="56.79" transform="translate(6.011 31.852)" fill="#c7b299"/><path d="M672.053,1794.386H555.837a2.341,2.341,0,0,1,0-4.633H672.053a2.341,2.341,0,0,1,0,4.633Z" transform="translate(-553.833 -1703.337)" fill="#8c6239"/><g transform="translate(0.138 7.854)"><path d="M660.458,1560.481a4.381,4.381,0,0,0-3.62-1.836H571.589a4.381,4.381,0,0,0-3.62,1.836l-13.73,19.881v7.561a8.23,8.23,0,0,0,4.284,7.127,8.72,8.72,0,0,0,3.448,1.066,9.014,9.014,0,0,0,6.6-2,7.608,7.608,0,0,0,2.8-5.858c0,4.361,3.836,7.9,8.568,7.9s8.568-3.536,8.568-7.9c0,4.361,3.836,7.9,8.568,7.9s8.568-3.536,8.568-7.9c0,4.361,3.836,7.9,8.568,7.9s8.568-3.536,8.568-7.9c0,4.361,3.836,7.9,8.568,7.9s8.568-3.536,8.568-7.9c0,4.361,3.836,7.9,8.568,7.9s8.568-3.536,8.568-7.9a7.608,7.608,0,0,0,2.8,5.858,9.014,9.014,0,0,0,6.6,2,8.72,8.72,0,0,0,3.449-1.066,8.23,8.23,0,0,0,4.284-7.127v-7.561Z" transform="translate(-554.24 -1558.645)" fill="#feb860"/><path d="M582.085,1558.645l-10.71,21.717H554.24l13.73-19.881a4.381,4.381,0,0,1,3.62-1.836Z" transform="translate(-554.24 -1558.645)" fill="#fed660"/><path d="M628.209,1558.645l-6.426,21.717H604.648l10.71-21.717Z" transform="translate(-587.513 -1558.645)" fill="#7e0000"/><path d="M676.475,1558.645l-4.284,21.717H655.056l6.426-21.717Z" transform="translate(-620.785 -1558.645)" fill="#fed660"/><path d="M722.6,1580.362H705.464l4.284-21.717h8.568Z" transform="translate(-654.058 -1558.645)" fill="#7e0000"/><path d="M764.689,1580.362H747.554l-4.284-21.717h14.993Z" transform="translate(-679.012 -1558.645)" fill="#fed660"/><path d="M810.938,1580.362H793.8l-6.426-21.717h12.852Z" transform="translate(-708.126 -1558.645)" fill="#7e0000"/><path d="M853.028,1580.362H835.893l-10.71-21.717h10.5a4.381,4.381,0,0,1,3.62,1.836Z" transform="translate(-733.08 -1558.645)" fill="#fed660"/><path d="M823.415,1622.531v7.9c0,4.362-3.836,7.9-8.568,7.9s-8.568-3.536-8.568-7.9v-7.9Z" transform="translate(-720.603 -1600.814)" fill="#600000"/><path d="M722.6,1622.531v7.9c0,4.362-3.836,7.9-8.568,7.9s-8.568-3.536-8.568-7.9v-7.9Z" transform="translate(-654.058 -1600.814)" fill="#600000"/><path d="M621.783,1622.531v7.9c0,4.362-3.836,7.9-8.568,7.9s-8.568-3.536-8.568-7.9v-7.9Z" transform="translate(-587.513 -1600.814)" fill="#600000"/></g><rect width="92.203" height="7.854" rx="3.927" transform="translate(14.011)" fill="#feb860"/><path d="M10.555,0h0A10.555,10.555,0,0,1,21.11,10.555V38.991a0,0,0,0,1,0,0H0a0,0,0,0,1,0,0V10.555A10.555,10.555,0,0,1,10.555,0Z" transform="translate(49.557 47.406)" fill="#8c6239"/><g transform="translate(16.115 47.549)"><rect width="21.11" height="34.783" rx="10.555" transform="translate(66.616 0.082) rotate(-0.222)" fill="#8c6239"/><rect width="21.11" height="34.783" rx="10.555" transform="translate(0 0.082) rotate(-0.222)" fill="#8c6239"/></g></g><g transform="translate(676.585 1578.309)"><g transform="translate(0)"><rect width="38.984" height="37.212" rx="16.804" transform="translate(0.886 0.886)" fill="#fed660"/><path d="M948.744,1700.341H921.89a6.959,6.959,0,0,1-6.951-6.951v-25.082a6.959,6.959,0,0,1,6.951-6.951h26.855a6.959,6.959,0,0,1,6.951,6.951v25.082A6.959,6.959,0,0,1,948.744,1700.341Zm-26.855-37.212a5.185,5.185,0,0,0-5.179,5.179v25.082a5.185,5.185,0,0,0,5.179,5.179h26.855a5.185,5.185,0,0,0,5.179-5.179v-25.082a5.185,5.185,0,0,0-5.179-5.179Z" transform="translate(-914.939 -1661.357)" fill="#8c6239"/></g><g transform="translate(5.615 6.094)"><path d="M979.654,1692.753a.826.826,0,0,0,.753.225,2.319,2.319,0,0,1,.343-.046,4.133,4.133,0,0,0,2.68-1.205l5.273-5.273a.829.829,0,0,0,0-1.171h0a.829.829,0,0,0-1.172,0l-3.32,3.32a.829.829,0,0,1-1.172,0h0a.828.828,0,0,1,0-1.172l3.32-3.32a.828.828,0,0,0,0-1.171h0a.828.828,0,0,0-1.171,0l-3.32,3.32a.829.829,0,0,1-1.172,0h0a.829.829,0,0,1,0-1.172l3.32-3.32a.829.829,0,0,0,0-1.172h0a.829.829,0,0,0-1.172,0l-5.273,5.273a4.137,4.137,0,0,0-1.205,2.68,2.329,2.329,0,0,1-.047.343.826.826,0,0,0,.225.754Z" transform="translate(-961.057 -1679.99)" fill="#600000"/><path d="M962.034,1703.32l-11.085-11.085-12.708-12.708a.829.829,0,0,0-.586-.243h-.1a.829.829,0,0,0-.771.525,9.286,9.286,0,0,0-.674,4.1,5.793,5.793,0,0,0,1.623,3.7l9.524,9.524a.829.829,0,0,0,1.172,0l.128-.128a.828.828,0,0,1,1.2.034l8.741,9.774c.014.016.029.031.044.046a2.486,2.486,0,0,0,3.493-3.537Zm-1.445,1.944a.993.993,0,0,1-1.405,0l-2.089-2.089a.994.994,0,0,1,1.406-1.405l2.088,2.088A.994.994,0,0,1,960.588,1705.264Z" transform="translate(-934.509 -1679.285)" fill="#600000"/><path d="M932.183,1734.539a2.485,2.485,0,0,0,3.515,3.515l7.918-7.918-3.515-3.515Zm4.648.268-2.088,2.089a.994.994,0,0,1-1.406-1.406l2.089-2.088a.994.994,0,0,1,1.405,1.405Z" transform="translate(-931.456 -1710.53)" fill="#600000"/></g></g><g transform="translate(668.115 1588.41)"><rect width="8.47" height="2.21" transform="translate(0 0)" fill="#8c6239"/><rect width="8.47" height="2.21" transform="translate(0 16.572)" fill="#8c6239"/></g></g></svg>