<svg xmlns="http://www.w3.org/2000/svg" width="119.718" height="91.048" viewBox="0 0 119.718 91.048">
  <g id="local_text" transform="translate(-1065.247 -1532.722)">
    <text id="Restaurantes" transform="translate(1082.387 1573.722)" fill="#fff" font-size="37" font-family="SixCaps, Six Caps"><tspan x="0" y="0">Restaurantes</tspan></text>
    <g id="Group_1289" data-name="Group 1289" transform="translate(1065.247 1567.697)">
      <g id="Group_1288" data-name="Group 1288" transform="translate(18.513 15.448)">
        <path id="Path_1508" data-name="Path 1508" d="M1123.358,1677.443V1697.7h-6.1v-20.254a3.048,3.048,0,0,1,3.048-3.048h0A3.048,3.048,0,0,1,1123.358,1677.443Z" transform="translate(-1117.263 -1674.395)" fill="#fff"/>
        <path id="Path_1509" data-name="Path 1509" d="M1152.172,1698.646a7.083,7.083,0,0,1,2.924,2.76,8.93,8.93,0,0,1,0,8.429,7.08,7.08,0,0,1-2.924,2.759,9.661,9.661,0,0,1-8.4,0,7.075,7.075,0,0,1-2.924-2.759,8.93,8.93,0,0,1,0-8.429,7.079,7.079,0,0,1,2.924-2.76,9.661,9.661,0,0,1,8.4,0Zm-5.629,4.983a2.986,2.986,0,0,0-.577,1.99,3.036,3.036,0,0,0,.563,1.99,1.866,1.866,0,0,0,2.87,0,3.727,3.727,0,0,0,0-3.981,1.852,1.852,0,0,0-2.856,0Z" transform="translate(-1131.772 -1689.396)" fill="#fff"/>
        <path id="Path_1510" data-name="Path 1510" d="M1201.853,1699.387a7.637,7.637,0,0,1,2.622,4.723h-6.452a1.421,1.421,0,0,0-1.4-1.208,1.312,1.312,0,0,0-1.167.687,5.062,5.062,0,0,0,0,4.063,1.311,1.311,0,0,0,1.167.687,1.42,1.42,0,0,0,1.4-1.208h6.452a7.637,7.637,0,0,1-2.622,4.723,7.761,7.761,0,0,1-5.093,1.7,8.568,8.568,0,0,1-4.1-.961,6.831,6.831,0,0,1-2.8-2.759,9.364,9.364,0,0,1,0-8.429,6.835,6.835,0,0,1,2.8-2.76,8.574,8.574,0,0,1,4.1-.961A7.762,7.762,0,0,1,1201.853,1699.387Z" transform="translate(-1163.373 -1689.396)" fill="#fff"/>
        <path id="Path_1511" data-name="Path 1511" d="M1244.839,1698.3a4.2,4.2,0,0,1,1.675,1.689v-2.114h6.067v15.485h-6.067v-2.114a4.2,4.2,0,0,1-1.675,1.689,5.243,5.243,0,0,1-2.609.617,5.859,5.859,0,0,1-3.268-.947,6.393,6.393,0,0,1-2.292-2.745,11.162,11.162,0,0,1,0-8.484,6.388,6.388,0,0,1,2.292-2.746,5.858,5.858,0,0,1,3.268-.948A5.241,5.241,0,0,1,1244.839,1698.3Zm-2.2,5.4a3.241,3.241,0,0,0,0,3.844,2.253,2.253,0,0,0,3.24,0,3.239,3.239,0,0,0,0-3.844,2.256,2.256,0,0,0-3.24,0Z" transform="translate(-1193.633 -1689.396)" fill="#fff"/>
        <path id="Path_1512" data-name="Path 1512" d="M1328.809,1706.691h-9.747a2.44,2.44,0,0,0,.522,1.579,1.584,1.584,0,0,0,1.153.425,1.482,1.482,0,0,0,1.428-.906h6.452a6.709,6.709,0,0,1-1.387,2.952,7.452,7.452,0,0,1-2.663,2.059,8.187,8.187,0,0,1-3.528.755,8.568,8.568,0,0,1-4.1-.961,6.829,6.829,0,0,1-2.8-2.759,9.363,9.363,0,0,1,0-8.429,6.833,6.833,0,0,1,2.8-2.76,8.574,8.574,0,0,1,4.1-.961,8.672,8.672,0,0,1,4.1.948,6.817,6.817,0,0,1,2.8,2.7,8.234,8.234,0,0,1,1,4.146A5.684,5.684,0,0,1,1328.809,1706.691Zm-6.041-2.5a1.631,1.631,0,0,0-.494-1.3,1.83,1.83,0,0,0-1.236-.426,1.772,1.772,0,0,0-1.922,1.73Z" transform="translate(-1243.419 -1689.396)" fill="#fff"/>
        <path id="Path_1513" data-name="Path 1513" d="M1373.156,1699.209a6.669,6.669,0,0,1,2.375,4.022h-5.684a1.716,1.716,0,0,0-1.867-1.318q-.851,0-.851.659,0,.467.618.714a12.374,12.374,0,0,0,1.963.522,19.489,19.489,0,0,1,3.006.782,5.251,5.251,0,0,1,2.155,1.469,4.017,4.017,0,0,1,.906,2.773,4.089,4.089,0,0,1-.769,2.444,5.008,5.008,0,0,1-2.252,1.675,9.206,9.206,0,0,1-3.487.6,8.921,8.921,0,0,1-5.327-1.428,6.136,6.136,0,0,1-2.444-4.118h5.848q.165,1.345,1.894,1.345.933,0,.934-.659a.825.825,0,0,0-.631-.769,11.736,11.736,0,0,0-2.032-.494,22.06,22.06,0,0,1-2.952-.769,4.883,4.883,0,0,1-2.045-1.4,3.946,3.946,0,0,1-.879-2.719,4.361,4.361,0,0,1,.741-2.5,4.928,4.928,0,0,1,2.2-1.73,8.886,8.886,0,0,1,3.542-.631A7.769,7.769,0,0,1,1373.156,1699.209Z" transform="translate(-1274.574 -1689.396)" fill="#fff"/>
      </g>
      <text id="_" data-name="&amp;" transform="translate(0 16)" fill="#fff" font-size="15" font-family="Poppins-Bold, Poppins" font-weight="700" letter-spacing="0.5em"><tspan x="0" y="0">&amp;</tspan></text>
      <path id="Path_1514" data-name="Path 1514" d="M1114.621,1739.837a.977.977,0,0,0-.814.452,2.777,2.777,0,0,1-.245.329,4.9,4.9,0,0,0-1.2,3.269l.1,8.835a.981.981,0,0,0,.993.97h0a.981.981,0,0,0,.97-.993l-.064-5.563a.982.982,0,0,1,.97-.993h0a.982.982,0,0,1,.993.971l.064,5.563a.982.982,0,0,0,.993.971h0a.982.982,0,0,0,.97-.993l-.064-5.563a.981.981,0,0,1,.97-.993h0a.982.982,0,0,1,.993.97l.064,5.563a.982.982,0,0,0,.993.97h0a.981.981,0,0,0,.97-.992l-.1-8.835a4.9,4.9,0,0,0-1.273-3.241,2.73,2.73,0,0,1-.252-.323.977.977,0,0,0-.825-.433Z" transform="translate(-1095.594 -1701.058)" fill="#fff"/>
      <path id="Path_1515" data-name="Path 1515" d="M1295.064,1706.819l.468-18.465.536-21.169a.977.977,0,0,0-.268-.7l-.085-.089a.976.976,0,0,0-1.074-.233,10.945,10.945,0,0,0-4.048,2.753,6.824,6.824,0,0,0-1.841,4.389l-.4,15.865a.976.976,0,0,0,.951,1l.213.006a.976.976,0,0,1,.948,1.055l-1.251,15.4c0,.024,0,.049,0,.074a2.929,2.929,0,0,0,5.856.111Zm-2.833.343a1.171,1.171,0,0,1-1.141-1.2l.089-3.479a1.171,1.171,0,1,1,2.341.059l-.088,3.479A1.171,1.171,0,0,1,1292.231,1707.163Z" transform="translate(-1208.944 -1653.6)" fill="#fff"/>
    </g>
  </g>
</svg>
