<svg xmlns="http://www.w3.org/2000/svg" width="111.352" height="147.89" viewBox="0 0 111.352 147.89"><g transform="translate(-3638.251 -1060.821)"><path d="M3749.965,1132.692l-1.1.8a7.491,7.491,0,0,1-10.675-1.982c-6.113-9.42-18.739-26.423-35.461-35.994-17.018-9.741-36.336-14.354-46.124-16.211a7.236,7.236,0,0,1-5.857-7.718h0a11.739,11.739,0,0,1,14.429-10.435c13.541,3.239,34.541,9.493,49.075,19.622,17.2,11.984,30.773,28.805,37.849,38.583A9.551,9.551,0,0,1,3749.965,1132.692Z" transform="translate(-4.315)" fill="#7f3500"/><g transform="translate(3638.251 1083.02)"><path d="M3663.1,1133.49a13.265,13.265,0,0,1-14.313,12.094c-.319-.027-.634-.069-.945-.117l2.73-26.316c.145.008.289.014.434.026A13.265,13.265,0,0,1,3663.1,1133.49Z" transform="translate(-3641.568 -1103.2)" fill="#7e0000"/><circle cx="13.25" cy="13.25" r="13.25" transform="translate(43.782 34.769)" fill="#7e0000"/><path d="M3683.9,1218.1a12.326,12.326,0,0,1,22.457-5.933l-20.4,13.843A12.272,12.272,0,0,1,3683.9,1218.1Z" transform="translate(-3654.028 -1133.524)" fill="#7e0000"/><path d="M3662.917,1125.317a16.417,16.417,0,0,0-14.968-17.715c-.124-.01-.248-.014-.371-.022l1.089-10.5a2.485,2.485,0,0,1,2.188-2.219c4.265-.475,15.888.254,40.042,13.979,27.134,15.419,37.72,32.794,40.674,38.609a2.49,2.49,0,0,1-.842,3.2l-8.1,5.4a2.493,2.493,0,0,0-1.1,1.865l-2.481,29.524a2.492,2.492,0,0,1-2.693,2.275l-1.307-.11a2.492,2.492,0,0,1-2.275-2.693l1.755-20.89a2.492,2.492,0,0,0-3.859-2.288h0a2.492,2.492,0,0,0-1.108,1.87l-1.432,17.033c-.028.337-.838,6.791-.861,7.1-.556,7.668-7.748,7.141-9.718-.29-1-3.771-.926-17.177-.926-17.177a1.509,1.509,0,0,0-2.352-1.374l-1.092.742a15.472,15.472,0,0,0-25.6,17.378l-.81.549a1.51,1.51,0,0,0-.655,1.122l-2.148,25.56a4.592,4.592,0,0,1-4.96,4.191h0a6.691,6.691,0,0,1-6.107-7.228l1.333-15.863a2.493,2.493,0,0,0-3.7-2.387l-8.576,4.774a2.493,2.493,0,0,1-3.692-2.435l5.929-57.134c.333.049.668.091,1.007.119A16.417,16.417,0,0,0,3662.917,1125.317Zm30.994,33.807a16.4,16.4,0,1,0-14.968-17.715A16.417,16.417,0,0,0,3693.911,1159.123Z" transform="translate(-3638.251 -1094.763)" fill="#f6dd18"/></g></g></svg>