<svg xmlns="http://www.w3.org/2000/svg" width="210.654" height="108.61" viewBox="0 0 210.654 108.61">
  <g id="sweet_ico" transform="translate(-554.804 -2678.34)">
    <g id="Group_1255" data-name="Group 1255" transform="translate(554.804 2678.34)">
      <g id="Group_1252" data-name="Group 1252" transform="translate(95.063 51.604)">
        <path id="Path_1423" data-name="Path 1423" d="M756.5,2838.188l1.363,25.749a4.914,4.914,0,0,0,4.907,4.655h35.808a4.915,4.915,0,0,0,4.907-4.655l1.362-25.749Zm7.3,21.844h0a1.9,1.9,0,0,1-1.988-1.808l-.521-10.914a1.9,1.9,0,1,1,3.8-.181l.521,10.914A1.9,1.9,0,0,1,763.8,2860.032Zm18.77-1.892a1.9,1.9,0,0,1-3.8,0v-10.926a1.9,1.9,0,1,1,3.8,0Zm16.721.084a1.9,1.9,0,1,1-3.8-.181l.521-10.914a1.9,1.9,0,0,1,1.989-1.807h0a1.9,1.9,0,0,1,1.807,1.989Z" transform="translate(-752.879 -2811.585)" fill="#a67c52"/>
        <path id="Path_1424" data-name="Path 1424" d="M800.647,2799.965h-3.8a4.038,4.038,0,1,0,0-8.076h-9.4a5.2,5.2,0,0,0,.849-2.85v-5.225H770.719a5.225,5.225,0,0,0-5.226,5.225h0a5.2,5.2,0,0,0,.849,2.85h-9.4a4.038,4.038,0,1,0,0,8.076h-3.8a4.038,4.038,0,0,0,0,8.076h47.505a4.038,4.038,0,1,0,0-8.076Z" transform="translate(-749.104 -2783.814)" fill="#66eaef"/>
      </g>
      <g id="Group_1253" data-name="Group 1253">
        <path id="Path_1425" data-name="Path 1425" d="M645.4,2789.982a6.474,6.474,0,0,1,2.776-4.421v-10.818a5.966,5.966,0,0,1,5.85-5.965,6.037,6.037,0,0,1,5.906,4.678,25.352,25.352,0,0,1,3.247.424v-4.361s-.335-3.354,6.709-3.354h.16v-3.674a5.972,5.972,0,0,0-5.966-5.966l-103.315.321a5.972,5.972,0,0,0-5.966,5.966v18.515a5.416,5.416,0,0,0,5.967,5.474c5.374-.454,7.863-4.244,7.865-6.093v-3.977a5.966,5.966,0,0,1,5.85-5.965,6.074,6.074,0,0,1,6.081,6.1v9.808a1.989,1.989,0,0,0,2.121,1.984,2.033,2.033,0,0,0,1.856-2.052v-8.88a8.948,8.948,0,0,1,8.774-8.947,9.089,9.089,0,0,1,9.123,9.123v.817a1.989,1.989,0,0,0,2.12,1.985,2.034,2.034,0,0,0,1.856-2.052v-3.909a5.966,5.966,0,0,1,5.85-5.965,6.074,6.074,0,0,1,6.081,6.1v11.8a1.989,1.989,0,0,0,2.121,1.984,2.034,2.034,0,0,0,1.856-2.052v-6.891a10.937,10.937,0,1,1,21.873,0v14.914a1.989,1.989,0,0,0,2.121,1.984,1.888,1.888,0,0,0,.879-.292C646.062,2795.489,644.812,2793.714,645.4,2789.982Z" transform="translate(-554.804 -2718.273)" fill="#ecaeff"/>
        <path id="Path_1426" data-name="Path 1426" d="M755.633,2788.7a2.034,2.034,0,0,0-1.856,2.052v.158a12.66,12.66,0,0,1,3.827-.972A1.984,1.984,0,0,0,755.633,2788.7Z" transform="translate(-656.427 -2734.701)" fill="#eceaf4"/>
        <path id="Path_1427" data-name="Path 1427" d="M658.378,2833.914l-2.812-2.812,3.94-3.94-.239-7.1-.307-.307.287-.287-.079-2.345a5.931,5.931,0,0,1-2.576.647,6.074,6.074,0,0,1-6.081-6.1v-16.022a6.96,6.96,0,1,0-13.92,0v6.959a5.965,5.965,0,0,1-5.85,5.964,6.074,6.074,0,0,1-6.081-6.1v-11.8a1.989,1.989,0,0,0-2.121-1.984,2.034,2.034,0,0,0-1.856,2.053v3.909a5.966,5.966,0,0,1-5.851,5.964,6.074,6.074,0,0,1-6.081-6.1v-.86a4.971,4.971,0,0,0-5.153-4.968,5.049,5.049,0,0,0-4.79,5.087v8.829a5.965,5.965,0,0,1-5.85,5.964,6.074,6.074,0,0,1-6.081-6.1v-9.808a1.989,1.989,0,0,0-2.121-1.985,2.034,2.034,0,0,0-1.856,2.053v3.909a9.961,9.961,0,0,1-5.418,8.852,4.743,4.743,0,0,0-2.536,4.238v26.82a4.335,4.335,0,0,0,4.335,4.335h80.687l-.279-8.289Zm-73.812-6.788-3.976-3.977,2.812-2.812,3.976,3.976Zm8.774,5.97-2.812-2.812,3.976-3.976,2.812,2.812Zm6.3-13.337-3.976-3.977,2.811-2.812,3.977,3.977Zm13.58,13.339-2.812-2.812,3.976-3.976,2.812,2.812Zm5.144-13.339-3.977-3.977,2.812-2.812,3.976,3.977Zm10.764,11.519-2.811-2.812,3.976-3.976,2.812,2.811Zm14.089-18.308,2.812,2.812-3.976,3.977-2.812-2.812Zm.156,20.339-3.977-3.977,2.812-2.812,3.976,3.977Z" transform="translate(-565.092 -2734.701)" fill="#eceaf4"/>
        <path id="Path_1428" data-name="Path 1428" d="M670.375,2692.866a3.31,3.31,0,0,0,3.018-3.54c0-2.916-3.018-6.574-3.018-6.574s-3.018,3.658-3.018,6.574A3.31,3.31,0,0,0,670.375,2692.866Z" transform="translate(-612.289 -2680.594)" fill="#fd0"/>
        <rect id="Rectangle_396" data-name="Rectangle 396" width="3.729" height="19.885" transform="translate(56.132 14.587)" fill="#eceaf4"/>
        <path id="Path_1429" data-name="Path 1429" d="M705.583,2690.612c1.392,0,2.521-1.923,2.521-4.3,0-3.538-2.521-7.977-2.521-7.977s-2.52,4.439-2.52,7.977C703.063,2688.689,704.191,2690.612,705.583,2690.612Z" transform="translate(-630.526 -2678.34)" fill="#fd0"/>
        <rect id="Rectangle_397" data-name="Rectangle 397" width="3.729" height="19.885" transform="translate(73.283 14.587)" fill="#eceaf4"/>
        <path id="Path_1430" data-name="Path 1430" d="M635.309,2690.612c1.941,0,3.515-1.923,3.515-4.3,0-3.538-3.515-7.977-3.515-7.977s-3.515,4.439-3.515,7.977C631.794,2688.689,633.368,2690.612,635.309,2690.612Z" transform="translate(-594.126 -2678.34)" fill="#fd0"/>
        <rect id="Rectangle_398" data-name="Rectangle 398" width="3.728" height="19.885" transform="translate(38.981 14.587)" fill="#eceaf4"/>
      </g>
      <g id="Group_1254" data-name="Group 1254" transform="translate(117.364 23.924)">
        <path id="Path_1431" data-name="Path 1431" d="M860.7,2806.743a7.055,7.055,0,0,1,3.609,2.653h2.846v-7.526a2.508,2.508,0,0,0-2.509-2.508H861.86a6.6,6.6,0,0,1,.518,1.261C863.384,2804.022,860.7,2806.743,860.7,2806.743Z" transform="translate(-828.401 -2764.074)" fill="#eceaf4"/>
        <path id="Path_1432" data-name="Path 1432" d="M874.484,2832.694a7.514,7.514,0,0,1-7.064-5.017H865.9c.409,5.5-3.473,6.107-3.473,6.107l-.97,29.18h10.014a2.055,2.055,0,0,0,1.854-1.548,2.975,2.975,0,0,0-.435-2.733l-.49-.613c9.295-7.054,16.341-20.333,18.73-30.392h-9.585A7.514,7.514,0,0,1,874.484,2832.694Z" transform="translate(-828.789 -2778.536)" fill="#eceaf4"/>
        <path id="Path_1433" data-name="Path 1433" d="M903.376,2738.824l7.137-7.3a2.508,2.508,0,1,0-3.548-3.547l-9.051,9.216c.041.148.1.288.136.438A19.894,19.894,0,0,1,903.376,2738.824Z" transform="translate(-847.409 -2727.238)" fill="#eceaf4"/>
        <path id="Path_1434" data-name="Path 1434" d="M842.924,2750.442a20,20,0,0,1,14.234-10.218,14.882,14.882,0,0,0-28.468,0A20,20,0,0,1,842.924,2750.442Z" transform="translate(-812.053 -2728.488)" fill="#f6dd18"/>
        <path id="Path_1435" data-name="Path 1435" d="M813.9,2770.493v2.9h9.5a15.051,15.051,0,0,0-28.72-6.3h12.506C814.236,2767.094,813.9,2770.493,813.9,2770.493Z" transform="translate(-794.685 -2743.125)" fill="#72e092"/>
        <path id="Path_1436" data-name="Path 1436" d="M863.64,2773.395h2.508a7.525,7.525,0,0,1,7.526,7.525v9.975a2.548,2.548,0,0,0,2.417,2.567,2.509,2.509,0,0,0,2.6-2.507V2780.92a7.526,7.526,0,0,1,7.526-7.525,3.8,3.8,0,0,1,3.8,3.8v4.492a1.891,1.891,0,0,0,1.766,1.907,1.856,1.856,0,0,0,1.946-1.854v-8.345h.013a15.051,15.051,0,1,0-30.1,0Z" transform="translate(-829.903 -2743.125)" fill="#ed1e79"/>
        <path id="Path_1437" data-name="Path 1437" d="M917.612,2800.3c-.65-.466-.837,0-.837.8v2.865c0,1.839-2.233,3.325-4.083,3.277-1.757-.045-3.911-1.594-3.911-3.351v-2.686c0-1.02-.108-1.847-1.128-1.847h-.486a2.508,2.508,0,0,0-2.508,2.508v7.526H917.2a2.509,2.509,0,0,0,2.508-2.509v-2.509A5.006,5.006,0,0,0,917.612,2800.3Z" transform="translate(-850.853 -2764.074)" fill="#eceaf4"/>
      </g>
    </g>
    <g id="Group_1256" data-name="Group 1256" transform="translate(722.802 2730.389)">
      <path id="Path_1438" data-name="Path 1438" d="M940.648,2809.1a26.64,26.64,0,0,0-3.225-10.19,27.549,27.549,0,0,0-7.133-8.209,27.874,27.874,0,0,0-9.676-5,25.742,25.742,0,0,0-6.769-.973l-.028.682a1.481,1.481,0,0,0,1.479,1.542,5.7,5.7,0,0,1,5.586,4.585,4.1,4.1,0,1,1,.11,8.2v.841a4.684,4.684,0,0,1-4.685,4.684s-.462,1.214-1.166,3.007a3.807,3.807,0,0,1-1.907,6.3,3.859,3.859,0,0,1-.67.095,80.842,80.842,0,0,1-3.5,7.635c-2.073,3.581-8.676,11.839-10.819,14.493-.027.034-.047.073-.073.107a27.1,27.1,0,0,0,6.965,3.147,26.058,26.058,0,0,0,10.588.764,27.531,27.531,0,0,0,10.329-3.479,31.893,31.893,0,0,0,13.69-17.389A27.148,27.148,0,0,0,940.648,2809.1Zm-19.758,20.77a3.516,3.516,0,1,1-.592-4.937A3.516,3.516,0,0,1,920.89,2829.868Zm15.078-13.494a5.275,5.275,0,1,1-.888-7.406A5.274,5.274,0,0,1,935.968,2816.374Z" transform="translate(-898.176 -2784.723)" fill="#ffd25e"/>
    </g>
  </g>
</svg>
