<svg xmlns="http://www.w3.org/2000/svg" width="207.583" height="95.552" viewBox="0 0 207.583 95.552"><g transform="translate(-1009.677 -2721.503)"><path d="M14.532,0l-2.3-2.772q-.28.448-.476.7A4.379,4.379,0,0,1,9.954-.42,5.917,5.917,0,0,1,7.2.2a6.881,6.881,0,0,1-3.43-.812,5.533,5.533,0,0,1-2.2-2.2A6.412,6.412,0,0,1,.812-5.936,6.044,6.044,0,0,1,2.1-9.926a4.939,4.939,0,0,1,3.3-1.806l-.336-.56a5.99,5.99,0,0,1-.672-1.4,5.032,5.032,0,0,1-.224-1.54,4.408,4.408,0,0,1,.672-2.352,4.773,4.773,0,0,1,1.974-1.75,6.852,6.852,0,0,1,3.122-.658,6.347,6.347,0,0,1,3.948,1.078,5.335,5.335,0,0,1,1.9,2.814,7.5,7.5,0,0,1,.308,2.716H11.648q0-.476-.056-1.036-.084-1.6-1.568-1.6a1.373,1.373,0,0,0-.994.364,1.228,1.228,0,0,0-.378.924,1.809,1.809,0,0,0,.21.868,9.157,9.157,0,0,0,.686,1.036L19.348,0ZM7.252-3.78A2.207,2.207,0,0,0,8.862-4.4a2.1,2.1,0,0,0,.63-1.568,2.112,2.112,0,0,0-.7-1.624,2.4,2.4,0,0,0-1.68-.644,2.23,2.23,0,0,0-1.582.56,2.072,2.072,0,0,0-.6,1.6A2.2,2.2,0,0,0,5.586-4.41,2.312,2.312,0,0,0,7.252-3.78Z" transform="translate(1008.865 2762.475)" fill="#fff"/><g transform="translate(1030.697 2721.503)"><g transform="translate(6.23)"><g transform="translate(2.432)"><path d="M1079.99,2738.31a8.8,8.8,0,0,1-3.613,3.542,11.52,11.52,0,0,1-5.547,1.27h-7.536v-19.957h7.536a11.724,11.724,0,0,1,5.561,1.242,8.672,8.672,0,0,1,3.6,3.5,11.4,11.4,0,0,1,0,10.4Zm-5.194-1a6.428,6.428,0,0,0,0-8.412,6.1,6.1,0,0,0-4.389-1.5h-2.286v11.4h2.286A6.1,6.1,0,0,0,1074.8,2737.307Z" transform="translate(-1063.294 -2722.234)" fill="#fff"/><path d="M1140.9,2730.673v15.75h-4.855v-2.851a5.225,5.225,0,0,1-2.018,2.2,5.86,5.86,0,0,1-3.119.819,5.452,5.452,0,0,1-4.3-1.807,7.244,7.244,0,0,1-1.594-4.968v-9.145h4.8v8.553a3.515,3.515,0,0,0,.833,2.5,2.929,2.929,0,0,0,2.244.889,2.971,2.971,0,0,0,2.314-.932,3.808,3.808,0,0,0,.846-2.654v-8.355Z" transform="translate(-1090.435 -2725.535)" fill="#fff"/><path d="M1189.342,2721.5v20.888h-4.827V2721.5Z" transform="translate(-1116.601 -2721.503)" fill="#fff"/><path d="M1235.846,2732a7.449,7.449,0,0,1,2.6,4.615h-5.109a2.7,2.7,0,0,0-.932-1.581,2.761,2.761,0,0,0-1.778-.564,2.579,2.579,0,0,0-2.089,1,5.625,5.625,0,0,0,0,5.844,2.58,2.58,0,0,0,2.089,1,2.754,2.754,0,0,0,1.778-.564,2.7,2.7,0,0,0,.932-1.581h5.109a7.443,7.443,0,0,1-2.6,4.615,7.822,7.822,0,0,1-5.109,1.68,8.461,8.461,0,0,1-4.107-.974,6.955,6.955,0,0,1-2.809-2.809,9.655,9.655,0,0,1-.014-8.6,6.859,6.859,0,0,1,2.808-2.794,8.551,8.551,0,0,1,4.121-.974A7.826,7.826,0,0,1,1235.846,2732Z" transform="translate(-1133.439 -2725.38)" fill="#fff"/><path d="M1294.57,2739.268h-10.924a3.647,3.647,0,0,0,.9,2.555,2.911,2.911,0,0,0,2.089.777,2.855,2.855,0,0,0,1.778-.536,2.5,2.5,0,0,0,.932-1.383h5.109a6.676,6.676,0,0,1-1.355,2.978,7.22,7.22,0,0,1-2.653,2.061,9.062,9.062,0,0,1-7.692-.226,6.957,6.957,0,0,1-2.809-2.809,9.66,9.66,0,0,1-.014-8.6,6.867,6.867,0,0,1,2.809-2.794,9.27,9.27,0,0,1,8.242-.014,6.784,6.784,0,0,1,2.752,2.7,8.027,8.027,0,0,1,.974,3.994A6.639,6.639,0,0,1,1294.57,2739.268Zm-5.575-4.361a3.067,3.067,0,0,0-2.131-.776,3.158,3.158,0,0,0-2.2.791,3.306,3.306,0,0,0-.988,2.314h6.154A2.9,2.9,0,0,0,1288.995,2734.907Z" transform="translate(-1158.121 -2725.38)" fill="#fff"/><path d="M1346.82,2731.816a6.5,6.5,0,0,1,2.244,3.952h-4.516a2.507,2.507,0,0,0-.889-1.51,2.706,2.706,0,0,0-1.736-.551,1.9,1.9,0,0,0-1.242.353,1.233,1.233,0,0,0-.423,1,1.175,1.175,0,0,0,.776,1.1,12.359,12.359,0,0,0,2.442.734,24.236,24.236,0,0,1,2.964.861,4.9,4.9,0,0,1,2,1.425,3.941,3.941,0,0,1,.847,2.653,4.068,4.068,0,0,1-.734,2.4,4.832,4.832,0,0,1-2.117,1.638,8.279,8.279,0,0,1-3.275.593,8.429,8.429,0,0,1-5.109-1.411,5.954,5.954,0,0,1-2.343-4.037h4.657a2.093,2.093,0,0,0,.861,1.552,3.24,3.24,0,0,0,1.933.537,1.8,1.8,0,0,0,1.242-.382,1.283,1.283,0,0,0,.424-1,1.206,1.206,0,0,0-.777-1.172,14.326,14.326,0,0,0-2.526-.748,20.061,20.061,0,0,1-2.879-.79,4.756,4.756,0,0,1-1.948-1.369,3.814,3.814,0,0,1-.818-2.583,4.215,4.215,0,0,1,1.609-3.43,7.013,7.013,0,0,1,4.545-1.312A7.225,7.225,0,0,1,1346.82,2731.816Z" transform="translate(-1183.09 -2725.38)" fill="#fff"/></g><g transform="translate(0 45.778)"><g transform="translate(0 0.468)"><path d="M1071.032,2804.048h-12.063a.016.016,0,0,0-.016.016v25.876a1.7,1.7,0,0,0,1.695,1.694h0a3.734,3.734,0,0,1,3.734,3.733v9.731a1.718,1.718,0,0,0,1.571,1.751,1.646,1.646,0,0,0,1.72-1.644v-22.323a.016.016,0,0,1,.016-.016h3.344a12.071,12.071,0,0,0,5.708-1.247,8.61,8.61,0,0,0,3.565-3.371,9.41,9.41,0,0,0,1.208-4.734,9.064,9.064,0,0,0-2.708-6.9Q1076.1,2804.047,1071.032,2804.048Zm-.974,12h-2.439a.016.016,0,0,1-.016-.016V2811a.016.016,0,0,1,.016-.016h2.439q2.688,0,2.689,2.532T1070.058,2816.048Z" transform="translate(-1058.953 -2804.048)" fill="#fff"/></g><g transform="translate(24.508)"><path d="M1129.174,2810.07a13.464,13.464,0,0,0-5.124-5.045,14.973,14.973,0,0,0-14.28,0,13.552,13.552,0,0,0-5.163,5.045,14.858,14.858,0,0,0,0,14.573,13.7,13.7,0,0,0,5.163,5.065,14,14,0,0,0,3.734,1.451,2.775,2.775,0,0,1,2.182,2.691v5.3a1.255,1.255,0,0,0,1.09,1.277,1.2,1.2,0,0,0,1.3-1.192v-5.6a2.482,2.482,0,0,1,1.984-2.419q.153-.033.3-.069a1.586,1.586,0,0,1,1.972,1.529v8.092a3.7,3.7,0,0,0,3.7,3.7h0a3.7,3.7,0,0,0,3.7-3.7v-15.889l.434-2.35a14.748,14.748,0,0,0,.889-5.17A14.178,14.178,0,0,0,1129.174,2810.07Zm-8.28,11.747a5.642,5.642,0,0,1-7.987,0,7.857,7.857,0,0,1,0-8.961,5.644,5.644,0,0,1,7.987,0,7.859,7.859,0,0,1,0,8.961Z" transform="translate(-1102.698 -2803.213)" fill="#fff"/></g><g transform="translate(55.211)"><path d="M1175.249,2815.9a33.33,33.33,0,0,0-4.383-1.851,20.351,20.351,0,0,1-3.1-1.305,1.665,1.665,0,0,1-.993-1.461,1.3,1.3,0,0,1,.351-.993,1.252,1.252,0,0,1,.9-.332q1.592,0,1.791,2.168a.015.015,0,0,0,.016.014h9.281a.016.016,0,0,0,.016-.017,8.665,8.665,0,0,0-3.194-6.606,12.392,12.392,0,0,0-7.87-2.3,14.225,14.225,0,0,0-5.4.974,8.541,8.541,0,0,0-3.779,2.864,8.489,8.489,0,0,0-.1,9.137,8.7,8.7,0,0,0,3.02,2.649,29.836,29.836,0,0,0,4.345,1.754,19.634,19.634,0,0,1,3.215,1.305,1.717,1.717,0,0,1,.993,1.539,1.262,1.262,0,0,1-.409,1.014,1.592,1.592,0,0,1-1.072.35q-1.9,0-2.1-2.362a.016.016,0,0,0-.016-.014H1157.6a.017.017,0,0,0-.016.017,8.928,8.928,0,0,0,2.117,5.545,4.872,4.872,0,0,1,1.168,3.24v9.021a1.718,1.718,0,0,0,1.571,1.751,1.646,1.646,0,0,0,1.72-1.644v-7.981a1.21,1.21,0,0,1,1.451-1.192,17.3,17.3,0,0,0,3.623.359,12.874,12.874,0,0,0,5.572-1.11l.012-.005a.753.753,0,0,1,1.077.68v3.337a1.253,1.253,0,0,0,1.087,1.274,1.2,1.2,0,0,0,1.307-1.192v-6.995c.027-.04.057-.078.083-.119a7.758,7.758,0,0,0,1.228-4.286,7.463,7.463,0,0,0-1.305-4.54A9.005,9.005,0,0,0,1175.249,2815.9Z" transform="translate(-1157.501 -2803.213)" fill="#fff"/></g><g transform="translate(78.785 0.468)"><path d="M1199.594,2810.905h7.215a.016.016,0,0,1,.016.016v20.7a.016.016,0,0,0,.016.016h8.618a.016.016,0,0,0,.016-.016v-20.7a.016.016,0,0,1,.016-.016h7.293a.016.016,0,0,0,.016-.016v-6.826a.016.016,0,0,0-.016-.016h-23.19a.015.015,0,0,0-.016.016v6.826A.016.016,0,0,0,1199.594,2810.905Z" transform="translate(-1199.578 -2804.048)" fill="#fff"/></g><g transform="translate(104.322 0.468)"><path d="M1262.57,2821.091a.016.016,0,0,1,.009-.022,8.451,8.451,0,0,0,4.4-3.072,8.2,8.2,0,0,0,1.539-4.91,9.026,9.026,0,0,0-1.188-4.617,8.26,8.26,0,0,0-3.565-3.234,12.688,12.688,0,0,0-5.727-1.188H1245.2a.016.016,0,0,0-.016.016V2817.1a1.193,1.193,0,0,0-.023.229v22.615a1.717,1.717,0,0,0,1.571,1.751,1.646,1.646,0,0,0,1.72-1.644v-5.908a2.505,2.505,0,0,1,2.505-2.505h2.861a.016.016,0,0,0,.016-.016V2821.8a.016.016,0,0,1,.03-.007l5.191,9.84h.009v5.417a1.253,1.253,0,0,0,1.087,1.274,1.2,1.2,0,0,0,1.307-1.192v-4.366a1.132,1.132,0,0,1,1.132-1.132h5.944a.016.016,0,0,0,.014-.024Zm-5.308-5.121h-3.413a.016.016,0,0,1-.016-.016v-4.644a.016.016,0,0,1,.016-.016h3.413a2.554,2.554,0,0,1,1.85.624,2.716,2.716,0,0,1,.02,3.487A2.708,2.708,0,0,1,1257.262,2815.971Z" transform="translate(-1245.16 -2804.048)" fill="#fff"/></g><g transform="translate(130.451 0.468)"><path d="M1310.173,2824.737h-9.709a.016.016,0,0,1-.016-.016v-3.865a.016.016,0,0,1,.016-.016H1309a.016.016,0,0,0,.016-.016v-6.475a.016.016,0,0,0-.016-.016h-8.54a.016.016,0,0,1-.016-.016v-3.4a.016.016,0,0,1,.016-.016h9.709a.016.016,0,0,0,.016-.016v-6.826a.016.016,0,0,0-.016-.016h-18.359a.015.015,0,0,0-.016.016v27.571h.035v9.723a3.7,3.7,0,0,0,3.7,3.7h0a3.7,3.7,0,0,0,3.7-3.7v-7.342a2.381,2.381,0,0,1,2.381-2.381h5.042a1.171,1.171,0,0,1,1.171,1.171v1.78a1.253,1.253,0,0,0,1.087,1.274,1.2,1.2,0,0,0,1.307-1.192v-7.921a1.18,1.18,0,0,0-.033-.269v-1.722A.016.016,0,0,0,1310.173,2824.737Z" transform="translate(-1291.798 -2804.048)" fill="#fff"/></g><g transform="translate(151.336)"><path d="M1351.168,2823.124a7.461,7.461,0,0,0-1.305-4.54,9.01,9.01,0,0,0-3.039-2.688,33.394,33.394,0,0,0-4.383-1.851,20.356,20.356,0,0,1-3.1-1.305,1.666,1.666,0,0,1-.994-1.461,1.306,1.306,0,0,1,.351-.993,1.254,1.254,0,0,1,.9-.332q1.592,0,1.791,2.168a.015.015,0,0,0,.015.014h9.281a.016.016,0,0,0,.016-.017,8.669,8.669,0,0,0-3.194-6.606,12.392,12.392,0,0,0-7.87-2.3,14.223,14.223,0,0,0-5.4.974,8.538,8.538,0,0,0-3.779,2.864,8.488,8.488,0,0,0-.1,9.137,8.7,8.7,0,0,0,3.02,2.649,29.86,29.86,0,0,0,4.344,1.754,19.61,19.61,0,0,1,3.215,1.305,1.717,1.717,0,0,1,.994,1.539,1.262,1.262,0,0,1-.409,1.014,1.592,1.592,0,0,1-1.072.35q-1.9,0-2.1-2.362a.016.016,0,0,0-.016-.014h-9.164a.017.017,0,0,0-.016.017,8.534,8.534,0,0,0,3.486,6.782q.374.269.772.507a2.322,2.322,0,0,1,1.124,2v19.509a1.717,1.717,0,0,0,1.571,1.75,1.645,1.645,0,0,0,1.72-1.644v-18.6a1.28,1.28,0,0,1,1.4-1.269l.023,0a.981.981,0,0,1,.894.982v7.139a1.253,1.253,0,0,0,1.087,1.274,1.2,1.2,0,0,0,1.307-1.192v-7.614a.691.691,0,0,1,.585-.688l.024,0a.442.442,0,0,1,.512.434v11.2a3.7,3.7,0,0,0,3.7,3.7h0a3.7,3.7,0,0,0,3.7-3.7v-18.5h-.005A8.457,8.457,0,0,0,1351.168,2823.124Z" transform="translate(-1329.075 -2803.213)" fill="#fff"/></g></g></g><rect width="186.563" height="7.843" rx="3.922" transform="translate(0 29.153)" fill="#fff"/></g></g></svg>